<?xml version="1.0" encoding="UTF-8"?>
<svg xmlns="http://www.w3.org/2000/svg" xmlns:rdf="http://www.w3.org/1999/02/22-rdf-syntax-ns#" xmlns:dc="http://purl.org/dc/elements/1.1/" xmlns:cc="http://creativecommons.org/ns#" version="1.1" viewBox="0 0 375 450">
  <defs>
    <style>
      .cls-1 {
        fill: #d3d20b;
      }

      .cls-2 {
        fill: #a9a816;
      }

      .cls-3 {
        fill: #cbca0d;
      }

      .cls-4 {
        fill: #bfbe10;
      }

      .cls-5 {
        fill: #777523;
      }

      .cls-6 {
        fill: #d9d80a;
      }

      .cls-7 {
        fill: #4d4b36;
      }

      .cls-8 {
        fill: #fefdfd;
      }

      .cls-9 {
        fill: #6f6d6e;
      }

      .cls-10 {
        fill: #d2d10c;
      }

      .cls-11 {
        fill: #f5f402;
      }

      .cls-12 {
        fill: #d1c719;
      }

      .cls-13 {
        fill: #8a8326;
      }

      .cls-14 {
        fill: #838120;
      }

      .cls-15 {
        fill: #a8a6a7;
      }

      .cls-16 {
        fill: #373435;
      }

      .cls-17 {
        fill: #ddd218;
      }

      .cls-18 {
        fill: #e0e008;
      }

      .cls-19 {
        fill: #01c8fa;
      }

      .cls-20 {
        fill: #0296df;
      }

      .cls-21 {
        fill: #d6d60a;
      }

      .cls-22 {
        fill: #f7f702;
      }

      .cls-23 {
        fill: #e0df08;
      }

      .cls-24 {
        fill: #b0afaf;
      }

      .cls-25 {
        fill: #c1c010;
      }

      .cls-26 {
        fill: #d0d0d0;
      }

      .cls-27 {
        fill: #a3a2a2;
      }

      .cls-28 {
        fill: #d4d30b;
      }

      .cls-29 {
        fill: #3b3834;
      }

      .cls-30 {
        fill: #e2e2e2;
      }

      .cls-31 {
        fill: #e7e706;
      }

      .cls-32 {
        fill: #f6f502;
      }

      .cls-33 {
        fill: #f6f6f6;
      }

      .cls-34 {
        fill: #565441;
      }

      .cls-35 {
        fill: #3a3734;
      }

      .cls-36 {
        fill: #eaea05;
      }

      .cls-37 {
        fill: #3d3934;
      }

      .cls-38 {
        fill: #e1e008;
      }

      .cls-39 {
        fill: #d3d30b;
      }

      .cls-40 {
        fill: #dbdbdb;
      }

      .cls-41 {
        fill: #dedd08;
      }

      .cls-42 {
        fill: #d0cf0c;
      }

      .cls-43 {
        fill: #59562b;
      }

      .cls-44 {
        fill: #dad909;
      }

      .cls-45 {
        fill: #ebde15;
      }

      .cls-46 {
        fill: #fbfa01;
      }

      .cls-47 {
        fill: #bcbbbb;
      }

      .cls-48 {
        fill: #a19822;
      }

      .cls-49 {
        fill: #d2d10b;
      }

      .cls-50 {
        fill: #fbee13;
      }

      .cls-51 {
        fill: #fbee12;
      }

      .cls-52 {
        fill: #f6f602;
      }

      .cls-53 {
        fill: #6b6827;
      }

      .cls-54 {
        fill: #8e8c8d;
      }

      .cls-55 {
        fill: #068ed2;
      }

      .cls-56 {
        fill: #525036;
      }

      .cls-57 {
        fill: #dcdc09;
      }

      .cls-58 {
        fill: #99971a;
      }

      .cls-59 {
        fill: #edecec;
      }

      .cls-60 {
        fill: #0194dd;
      }

      .cls-61 {
        fill: #fcf012;
      }

      .cls-62 {
        fill: #fbfb01;
      }

      .cls-63 {
        fill: #c4c4c4;
      }

      .cls-64 {
        fill: #dedede;
      }

      .cls-65 {
        fill: #f9ed13;
      }

      .cls-66 {
        fill: #5f5c2a;
      }

      .cls-67 {
        fill: #d6d50a;
      }

      .cls-68 {
        fill: #f3f303;
      }

      .cls-69 {
        fill: #eee214;
      }

      .cls-70 {
        fill: #615e2a;
      }

      .cls-71 {
        fill: #f4f403;
      }

      .cls-72 {
        fill: #53513b;
      }

      .cls-73 {
        fill: #e4e307;
      }

      .cls-74 {
        fill: #c5c40f;
      }

      .cls-75 {
        fill: #918925;
      }

      .cls-76 {
        fill: #57543b;
      }

      .cls-77 {
        fill: #f5e814;
      }

      .cls-78 {
        fill: #58562c;
      }

      .cls-79 {
        fill: #f5f502;
      }

      .cls-80 {
        fill: #f4f402;
      }

      .cls-81 {
        fill: #f1f103;
      }

      .cls-82 {
        fill: #757324;
      }

      .cls-83 {
        fill: #cbcb0d;
      }

      .cls-84 {
        fill: #423f31;
      }

      .cls-85 {
        fill: #fcef12;
      }

      .cls-86 {
        fill: #c8bd1b;
      }

      .cls-87 {
        fill: #b3b313;
      }

      .cls-88 {
        fill: #d1d10c;
      }

      .cls-89 {
        fill: #e6e606;
      }

      .cls-90 {
        fill: #e4e406;
      }

      .cls-91 {
        fill: #ebea04;
      }

      .cls-92 {
        fill: #03c4f4;
      }

      .cls-93 {
        fill: #c7bd1b;
      }

      .cls-94 {
        fill: #dddcdc;
      }

      .cls-95 {
        fill: #454232;
      }

      .cls-96 {
        fill: #0195df;
      }

      .cls-97 {
        fill: #52502d;
      }

      .cls-98 {
        fill: #0196df;
      }

      .cls-99 {
        fill: #d7cc18;
      }

      .cls-100 {
        fill: #efef04;
      }

      .cls-101 {
        fill: #e9e905;
      }

      .cls-102 {
        fill: #e9e805;
      }

      .cls-103 {
        fill: #413e32;
      }

      .cls-104 {
        fill: #aaa9aa;
      }

      .cls-105 {
        fill: #524f50;
      }

      .cls-106 {
        fill: #d7d60a;
      }

      .cls-107 {
        fill: #f8f8f8;
      }

      .cls-108 {
        fill: #a4a317;
      }

      .cls-109 {
        fill: #767475;
      }

      .cls-110 {
        fill: #eeee04;
      }

      .cls-111 {
        fill: #b5b4b4;
      }

      .cls-112 {
        fill: #ecec04;
      }

      .cls-113 {
        fill: #74c5ed;
      }

      .cls-114 {
        fill: #53513e;
      }

      .cls-115 {
        fill: #f5e913;
      }

      .cls-116 {
        fill: #fdf112;
      }

      .cls-117 {
        fill: #efe314;
      }

      .cls-118 {
        fill: #fefefe;
      }

      .cls-119 {
        fill: #d8d70a;
      }

      .cls-120 {
        fill: #fcfc01;
      }

      .cls-121 {
        fill: #676428;
      }

      .cls-122 {
        fill: #f0f004;
      }

      .cls-123 {
        fill: #fbef12;
      }

      .cls-124 {
        fill: #3d3a33;
      }

      .cls-125 {
        fill: #f2f203;
      }

      .cls-126 {
        fill: #fdf012;
      }

      .cls-127 {
        fill: #d2d20b;
      }

      .cls-128 {
        fill: #464430;
      }

      .cls-129 {
        fill: #ebeaea;
      }

      .cls-130 {
        fill: #6a6827;
      }

      .cls-131 {
        fill: #383534;
      }

      .cls-132 {
        fill: #d4d40b;
      }

      .cls-133 {
        fill: #383535;
      }

      .cls-134 {
        fill: #dacf18;
      }

      .cls-135 {
        fill: #7f7d28;
      }

      .cls-136 {
        fill: #eae905;
      }

      .cls-137 {
        fill: #504e37;
      }

      .cls-138 {
        fill: #393634;
      }

      .cls-139 {
        fill: #e5e506;
      }

      .cls-140 {
        fill: #d0cfcf;
      }

      .cls-141 {
        fill: #e3e307;
      }

      .cls-142 {
        fill: #e6e506;
      }

      .cls-143 {
        fill: #4d4b3d;
      }

      .cls-144 {
        fill: #adac15;
      }

      .cls-145 {
        fill: #dede08;
      }

      .cls-146 {
        fill: #f7f602;
      }

      .cls-147 {
        fill: #fef112;
      }

      .cls-148 {
        fill: #757374;
      }

      .cls-149 {
        fill: #fbfbfb;
      }

      .cls-150 {
        fill: #fcfcfc;
      }

      .cls-151 {
        fill: #c6c5c5;
      }

      .cls-152 {
        fill: #acab15;
      }

      .cls-153 {
        fill: #a9a020;
      }

      .cls-154 {
        fill: #f2e614;
      }

      .cls-155 {
        fill: #dfde08;
      }

      .cls-156 {
        fill: #d5d50b;
      }

      .cls-157 {
        fill: #dada09;
      }

      .cls-158 {
        fill: #4e4c42;
      }

      .cls-159 {
        fill: #524f2d;
      }

      .cls-160 {
        fill: #faed13;
      }

      .cls-161 {
        fill: #00cbfe;
      }

      .cls-162 {
        fill: #acaa15;
      }

      .cls-163 {
        fill: #413e33;
      }

      .cls-164 {
        fill: #cdcccc;
      }

      .cls-165 {
        fill: #ede115;
      }

      .cls-166 {
        fill: #fafa01;
      }

      .cls-167 {
        fill: #dadada;
      }

      .cls-168 {
        fill: #f8eb13;
      }

      .cls-169 {
        fill: #f9ec13;
      }

      .cls-170 {
        fill: #afad15;
      }

      .cls-171 {
        fill: #5a5859;
      }

      .cls-172 {
        fill: #d9ce18;
      }

      .cls-173 {
        fill: #fefe00;
      }

      .cls-174 {
        fill: #383536;
      }

      .cls-175 {
        fill: #514f33;
      }

      .cls-176 {
        fill: #fdfd00;
      }

      .cls-177 {
        fill: #faee13;
      }

      .cls-178 {
        fill: #646228;
      }

      .cls-179 {
        fill: #363638;
      }

      .cls-180 {
        fill: #a6a4a5;
      }

      .cls-181 {
        fill: #e1e107;
      }

      .cls-182 {
        fill: #7e7b7d;
      }

      .cls-183 {
        fill: #c4c30f;
      }

      .cls-184 {
        fill: #fdfdfd;
      }
    </style>
  </defs>
  <!-- Generator: Adobe Illustrator 28.6.0, SVG Export Plug-In . SVG Version: 1.2.0 Build 709)  -->
  <g>
    <g id="Camada_1">
      <path class="cls-15" d="M373.6.4c0,0,.1,0,.2,0v262.9c-.1,0-.3,0-.3-.1-.3-.5-.2-1.1-.2-1.7,0-6.8,0-13.7,0-20.5,0-79.5,0-158.9,0-238.4,0-.8-.2-1.5.3-2.2Z"/>
      <path class="cls-105" d="M191,449.9h-6.4c0-.1,0-.2.1-.3,2.1-.3,4.2-.3,6.2,0,.1,0,.2.2,0,.3Z"/>
      <path class="cls-9" d="M373.6,263.3c0,0,.1,0,.2,0v3.4c-.1,0-.2,0-.3-.1-.2-1.1-.4-2.2.1-3.3Z"/>
      <path class="cls-109" d="M184.6,449.7c0,0,0,.1,0,.2h-2c0-.1,0-.2,0-.3.7-.2,1.3-.3,1.9.1Z"/>
      <path class="cls-182" d="M191,449.9c0,0,0-.1,0-.2.5-.4,1.1-.3,1.7-.1.1,0,.1.2,0,.3h-1.8Z"/>
      <path class="cls-54" d="M373.6,266.7c0,0,.1,0,.2,0v1.6c-.1,0-.2,0-.3,0-.2-.5-.3-1,.1-1.5Z"/>
      <path class="cls-27" d="M182.6,449.7c0,0,0,.1,0,.2h-1.4c0-.1,0-.2,0-.3.5-.2.9-.3,1.3.1Z"/>
      <path class="cls-180" d="M192.8,449.9c0,0,0-.1,0-.2.4-.4.9-.3,1.3-.1.1,0,.1.2,0,.3h-1.4Z"/>
      <path class="cls-24" d="M373.6,268.3c0,0,.1,0,.2,0v1.4c-.1,0-.2,0-.3,0-.2-.5-.3-.9.1-1.3Z"/>
      <path class="cls-140" d="M194.2,449.9c0,0,0-.1,0-.2.4-.4.8-.4,1.2,0,0,0,0,.1,0,.2h-1.2Z"/>
      <path class="cls-164" d="M181.2,449.7c0,0,0,.1,0,.2h-1.2c0,0,0-.1,0-.2.4-.4.8-.4,1.2,0Z"/>
      <path class="cls-94" d="M373.6,269.7c0,0,.1,0,.2,0v1.2h0s0,0,0,0c-.4-.4-.4-.8,0-1.2Z"/>
      <path class="cls-16" d="M373.6,269.7c0,.4,0,.8,0,1.2-.5,11.7-2,23.2-4.6,34.5-6.2,26.6-17.6,50.7-34.4,72.2-22.5,28.7-50.9,49.3-85.2,61.6-12.2,4.4-24.8,7.3-37.7,9-5.4.7-10.8,1.1-16.2,1.4-.4,0-.8,0-1.2,0-.5,0-.9,0-1.4,0-.6,0-1.2,0-1.8,0-2.2,0-4.3,0-6.5,0-.7,0-1.3,0-2,0-.5,0-.9,0-1.4,0-.4,0-.8,0-1.2,0-21.9-.9-42.9-5.5-63.1-13.9-51.8-21.5-91.5-65.3-107.5-118.9-3.2-10.6-5.4-21.3-6.6-32.3-.7-6.4-1.1-12.9-1.2-19.3,0-2.3,0-4.5,0-6.8,0-85.6,0-171.2,0-256.8q0-1.4,1.4-1.4c123.2,0,246.3,0,369.5,0,.4,0,.8,0,1.2,0,0,.5,0,.9,0,1.4,0,86.7,0,173.4,0,260.1,0,.5,0,.9,0,1.4,0,1.1,0,2.3,0,3.4,0,.5,0,1.1,0,1.6,0,.5,0,.9,0,1.4Z"/>
      <path class="cls-150" d="M187.7,2.3c60.9,0,121.7,0,182.6,0q1.5,0,1.5,1.4c0,86.4,0,172.9,0,259.3,0,41-12.1,78-36.7,110.8-26.5,35.3-61.4,58.3-104.3,69-16.6,4.1-33.5,5.7-50.7,4.9-41-1.9-77.4-15.7-109.1-41.8-31.3-25.7-52-58.4-62-97.7-3.7-14.3-5.4-28.9-5.4-43.7-.2-87.1,0-174.1-.1-261.2,0-1,.4-1,1.2-1,61,0,122.1,0,183.1,0Z"/>
      <path class="cls-16" d="M188,96c55.5,0,111,0,166.5,0,1.6,0,1.4-.2,1.4,1.4,0,55,0,110.1,0,165.1,0,8.6-.4,17.1-1.6,25.5-3.3,23.1-10.9,44.6-23.4,64.3-23.5,37.3-56.6,62.1-99.1,74.1-10.4,2.9-21,4.6-31.8,5.4-9.2.6-18.5.6-27.7-.3-31.4-3.1-59.8-14-84.9-33-30.3-23-50.7-52.9-61.1-89.5-2.8-9.7-4.5-19.6-5.4-29.7-.4-4-.4-8.1-.7-12.1-.6-11.2-.2-22.4-.3-33.7,0-45.3,0-90.7,0-136q0-1.6,1.5-1.6c55.5,0,110.9,0,166.4,0Z"/>
      <path class="cls-16" d="M187.9,14c55.5,0,111,0,166.5,0,1,0,1.3.2,1.3,1.3,0,23.2,0,46.5,0,69.7,0,1-.3,1.2-1.2,1.2-111.1,0-222.3,0-333.4,0-.9,0-1.2-.2-1.2-1.2,0-23.3,0-46.5,0-69.8,0-1,.3-1.2,1.2-1.2,55.6,0,111.2,0,166.8,0Z"/>
      <path class="cls-60" d="M188,99.4c54.4,0,108.7,0,163.1,0,1.6,0,1.4-.2,1.4,1.4,0,54.1,0,108.1,0,162.2,0,5.9-.2,11.8-.7,17.6-1.4,14.1-4.5,27.8-9.5,41.1-6.7,18-16.4,34.4-28.8,49.1-14.1,16.6-30.8,29.9-50.1,39.9-14.1,7.3-29,12.4-44.6,15.4-6.6,1.3-13.3,2.1-20,2.5-5,.3-10.1.5-15.2.3-20.8-.6-40.8-4.9-60-13.1-14.9-6.4-28.6-14.8-41.1-25.2-15.9-13.4-28.9-29.2-39-47.4-8.2-15-14-30.9-17.2-47.7-1.1-5.6-1.9-11.3-2.3-17-.4-5-.5-10-.6-14.9-.7-54.3,0-108.5-.3-162.8,0-1.6-.2-1.4,1.4-1.4,54.4,0,108.9,0,163.3,0Z"/>
      <path class="cls-96" d="M187.8,82.9c-54.4,0-108.7,0-163.1,0-1.7,0-1.5.2-1.5-1.5,0-20.9,0-41.8,0-62.8q0-1.3,1.3-1.3c108.9,0,217.7,0,326.6,0q1.3,0,1.3,1.3c0,21,0,42,0,63q0,1.3-1.4,1.3c-54.4,0-108.8,0-163.2,0Z"/>
      <path class="cls-16" d="M44.5,192.8c2.9-.6,5.9-.9,8.9-1.2,4.2-.4,8.5-.5,12.7-.4,8.4.2,16.7,1.2,25,2.7,20.9,3.8,40.9,10.5,60.7,18.1,3.2,1.2,6.3,2.5,9.4,3.7.6.3,1.1.2,1.7,0,6.9-3.4,14.1-5.9,21.7-7,9.5-1.4,18.7-.4,27.7,3.2.9.4,1.6.3,2.5-.1,15.4-7.7,31.4-13.8,48.1-17.9,8.3-2,16.6-3.5,25.1-4.4,8.3-.9,16.7-1.3,25-1.1,4.6,0,9.2.4,13.7.8.8,0,1.1.2.9,1.2-1,5.2-4.2,8.2-9.7,8.8-.7,0-1.2.4-1.6.9-2.4,3.3-5.6,5.4-9.6,6.3-.4,0-.7.2-.9.5-2.9,4.1-7.1,5.9-11.8,6.9-3.6.8-7.2.9-10.9.7-.4,0-.7,0-.9.4-2.8,4-6.9,5.5-11.6,5.9,0,0-.1,0-.2,0-1.8-.2-3,.1-4,2.1-1.1,2.2-3.5,3-5.9,3.4-.8.1-1.3.3-1.6,1.2-.7,1.9-2.2,2.9-4.2,3-.3,0-.6,0-.7.3-.9,2.1-2.7,2.4-4.6,2.2-.9,0-1.3,0-1.7.9-.6,1.6-2.1,2.1-3.7,2.4-.5,0-.9.3-1.2.7-1.4,1.9-3.2,2.9-5.6,2.4-.5-.1-.6.2-.8.5-.6,1.1-1.3,2.1-2.2,3-1.2,1.2-2.7,1.9-4.4,1.7-.5,0-.9.1-1.1.6-.5.8-1,1.5-1.5,2.2-.6.8-1.4,1.3-2.4,1.2-.5,0-.8.2-1.1.6-.8,1.1-2,1.9-3.4,2.2-.6.1-.9.4-1.3.8-.9,1.2-2.1,2.1-3.5,2.6-.3.1-.7.3-.9.6-.7.9-1.7,1.3-2.8,1.4-.5,0-.7.3-1,.6-1.3,1.8-3,2.9-5.3,2.4-.9-.2-1.4.5-2,.8-.3.2,0,.4,0,.6,1.8,3.4,3.7,6.7,5.5,10.1.3.5.6.5,1.1.6,3.4.6,6.7,1.3,10.1,1.9,1.2.2,1.5.8.7,1.8-1,1.2-1.9,2.4-3,3.7,1.1.1,2.1.2,3,.4,2.1.3,4,1,5.7,2.3,2,1.5,3.1,3.5,2.6,6.1-.1.6.2.6.7.7,5.1.5,9.9,1.7,14.5,4,.9.5,2.2.7,2.5,1.5.3.8-.9,1.6-1.3,2.4,0,.1-.1.2-.2.3q-1.2,1.9,1,2.5c.7.2,1.5.4,2.3.7-.4.8-1,1.4-1.6,2-.4.5-.5.7.2.9,1.2.4,2.4,1,3.7,1.4.6.2.7.4.3,1-2.8,3.9-5.5,7.9-8.3,11.8-.5.7-.5,1,.4,1.3,2.1.8,4.2,1.6,6.2,2.6,1.4.7,2.6,1.6,3.9,2.5,2.5,1.6,5,3.2,7.4,4.7.8.5,1.6,1.1,2.4,2,.5-3,.3-5.8,0-8.6-.4-3.2-1.5-6.3-2.4-9.4-.8-2.8-.9-5.7-.3-8.4.6-2.3,2-4.3,4-5.7,2.9-2,6.2-2.8,9.6-3.4,3.7-.7,7.3,0,10.9.5,7.5,1,15,2.4,22.5,3.2,4.2.5,8.4.7,12.6.4.8,0,1.7-.2,2.5-.3.5,0,.8-.2,1,.4.2.6,0,.8-.5,1-4,2-8,4-11.9,6-.3.2-.6.3-1.2.6,2,.3,3.8.6,5.6.9,3,.5,6,1,9,1.4.5,0,.6.3.7.7.1.4,0,.7-.4.9-4.3,3-9.1,4.7-14.4,5-5.4.3-10.5-.9-15.6-2.1-3.6-.9-7.2-1.8-11-1.5-2.9.2-5.4,1.4-7.4,3.5-.4.4-.3.7,0,1.1,1.5,2.1,3.1,4.1,4.1,6.5,2.1,5,2,10.2,1.1,15.5-.4,2.5-1.6,4.2-3.6,5.8-12.2,9.5-26,15.6-40.8,19.4-7.5,1.9-15.1,3.1-22.8,3.7-5.7.4-11.4.6-17.2.3-24.2-1.1-46.9-7.6-67.7-20.3-.5-.3-.9-.7-1.1-1.3-1.7-5.3-3.4-10.6-4.3-16.2-.4-2.7-.8-5.4-.1-8.1.2-.8.5-1.5.9-2.2,3.2-5,7.1-9.4,12-12.8-.2-.3-.5-.2-.7-.2-2.5,0-5.1-.3-7.6,0-4.2.5-7.6,2.4-10.3,5.6-1.5,1.8-2.9,3.6-4.6,5.2-1.6,1.5-3.5,2.7-5.6,3.4-5.4,1.6-10.4,3.9-15.6,6-8.2,3.2-16.3,6.5-24.4,9.7-.4.2-.8.4-1.2-.1-.4-.5,0-.9.2-1.2,3.2-4.1,6.4-8.1,9.5-12.2.2-.2.3-.4.6-.8-1.9.5-3.6.9-5.3,1.3-4.1,1-8.2,2.1-12.3,3.2-.5.1-.8.2-1.1-.4-.3-.6,0-.8.4-1.1,4.6-4,9.8-7.2,15.3-9.9,7.1-3.5,14.5-6,22.1-7.9,3.6-.9,6.7-3,9.4-5.5,2.2-2,4-4.3,6.2-6.3,3.5-3.1,7.5-4.6,12.1-4.6,4.5,0,9,0,13.6,0,0-.2-.2-.4-.3-.6-.8-1.4-1.1-3-.5-4.5.1-.4,0-.7,0-1.1-.9-2.9-.4-5.5,1.9-7.5,2.5-2.2,5.4-2.6,8.4-1.3,1.4.6,2.7,1.5,4,2.3,3.8,2.2,7.8,3.8,12,5,.6.2.8,0,1.1-.5,1.6-3.1,3.2-6.3,4.8-9.4.2-.4.3-.8.9-.7.6,0,.7.5.8,1,.5,2.5.8,5.1,1.2,7.8,1.7-1.9,3.3-3.7,4.9-5.5,1.7-2,1.7-2,4.3-1.5.9.2,1.8.4,2.7.6.4.1.5,0,.5-.4,0-.6.3-.9.9-1.1,2-.4,4-.7,6-1.1,1.2-.3,2.5-.4,3.8-.5.7,0,1.2-.4,1.5-1,1.5-2.8,3.1-5.6,4.6-8.3.2-.4.4-.8.7-1.2-1,0-1.7.5-2.6.4-1.6-.3-3,0-4.6.3-2.1.5-4.1-.2-5.6-1.8-.5-.5-1-.6-1.7-.4-1,.3-1.9.5-2.9.6-2.1.2-4-.3-5.3-2.1-.4-.5-.6-.5-1-.1-1.5,1.2-2.3,2.8-3.2,4.3-.2.4-.3,1-1.1.8-.8-.2-.6-.8-.7-1.2-.3-2.1-.2-4.3.3-6.4.9-3.6,3-6.2,6.3-7.9.7-.3.8-.6.5-1.3-.4-.6-.3-1.4-.5-2.2-1,.6-1.8,1.2-2.8,1.7-1.7,1-3.5,1.9-5.5,2-.5,0-1,0-1.4-.2-.8-.6-1.6-.4-2.5-.1-.9.3-1.8.4-2.8.3-1,0-1.9-.4-2.2-1.6-.2-.8-.8-.4-1.1-.4-1.7.2-3.4.3-5.1,0-.4,0-.9-.2-1.2-.5-.6-.8-1.2-.6-2-.4-2.6.6-5.1.6-7-1.9-.2-.3-.5-.2-.8,0-1.2.3-2.4.5-3.7.5-1.4,0-2.5-.6-3.2-1.9-.2-.5-.6-.6-1-.5-1.5.2-3.1.2-4.6-.2-1.5-.4-2.7-1.2-3.3-2.7-.2-.5-.6-.6-1-.6-1.6,0-3.2,0-4.8-.3-1.9-.4-3.6-1.1-3.6-3.5,0-.5-.3-.3-.6-.3-1.4.1-2.8.3-4.2,0-1.8-.3-2.6-1-2.7-2.9,0-.6-.5-.5-.8-.6-2.3-.3-4.5-.5-6.7-1.2-1.4-.4-2.6-1-2.8-2.7,0-.4-.3-.4-.6-.4-3.8.2-6.6-1.4-8.6-4.6-.3-.5-.7-.7-1.2-.8-2.3-.6-4.5-1.4-6.5-2.9-1-.8-1.9-1.7-2.4-2.9-.2-.6-.6-.8-1.2-.8-2.1-.2-4.2-.7-6.1-1.6-1.8-.9-3.3-2.2-3.8-4.3-.1-.6-.5-.6-1-.7-2.4-.4-4.8-1-7-2-1.7-.8-3.2-1.8-3.8-3.8-.2-.5-.5-.4-.9-.4-4-.3-7.6-1.4-10.7-4-1.6-1.4-3.1-2.9-4.7-4.4,0-.1.2-.3.2-.4Z"/>
      <path class="cls-118" d="M69.9,143.7c4.7,2.2,5.4,7.7,1.5,10.5-1.1.8-2.3,1.1-3.6,1.1-3.9,0-7.8,0-11.6.1-.6,0-.7-.2-.7-.7,0-6.9,0-13.8,0-20.7,0-.6.2-.7.7-.7,3.7,0,7.5-.1,11.2.2,3.7.3,6.1,3.3,5.3,6.7-.4,1.5-1.3,2.6-2.8,3.5Z"/>
      <path class="cls-118" d="M162.5,143.8c1.9.7,3.3,1.8,3.8,3.7,1.1,3.9-1.6,7.8-5.8,7.9-3.9.1-7.9,0-11.8.1-.5,0-.7-.2-.7-.7,0-6.9,0-13.8,0-20.8,0-.5.2-.7.7-.7,3.7,0,7.5-.1,11.2.1,4,.3,6.5,3.9,5.1,7.4-.4,1.1-1.1,1.9-2.6,2.9Z"/>
      <path class="cls-118" d="M129.7,145.8c3.6,2.3,4.9,6.2,7.5,9.6-1.9,0-3.5,0-5.2,0-.4,0-.5-.4-.7-.7-1.5-2.2-3.1-4.4-4.5-6.6-1.1-1.7-2.8-1.9-4.6-1.9-.7,0-.5.5-.5.9,0,2.4,0,4.9,0,7.3,0,.8-.2,1.1-1,1-.9,0-1.7,0-2.6,0-.8,0-.9-.3-.9-1,0-5.2,0-10.4,0-15.6s0-3.1,0-4.7c0-.6.2-.9.8-.9,3.8,0,7.6,0,11.3.1,5.4.3,6.5,4.7,5.7,8-.6,2.3-2.3,3.5-4.5,4.1-.3,0-.5,0-.8.3Z"/>
      <path class="cls-118" d="M274,141.3c0,3.1,0,6.1,0,9.2,0,1.4,0,2.7,0,4.1,0,.7-.2.9-.9.9-1.1-.1-2.4.5-3.1-.2-.6-.6-.2-2-.2-3,0-6,0-11.9,0-17.9,0-.8.2-.9,1-1,2.5-.4,3.9.6,5.2,2.8,2.2,4,4.7,7.8,7.1,11.7.2-.3.1-.6.1-.9,0-4.2,0-8.4,0-12.7,0-.7.1-1,.9-1,.8,0,1.5,0,2.3,0,.8,0,1,.3,1,1,0,6.7,0,13.4,0,20.1,0,.8-.2,1.1-1,1-1.2,0-2.5.3-3.4-.2-.9-.5-1.3-1.8-2-2.8-2.1-3.4-4.3-6.9-6.4-10.3-.2-.3-.3-.6-.7-.8Z"/>
      <path class="cls-118" d="M240.6,144.5c0-3.4,0-6.8,0-10.2,0-.7.2-.9.8-.9,4.9,0,9.8,0,14.8,0,.7,0,.9.2.8.9,0,.9.4,2.1-.2,2.7-.6.6-1.8.2-2.7.2-2.7,0-5.5,0-8.2,0-.7,0-.9.2-.9.9,0,1,0,2.1,0,3.1,0,.7.2.9.9.9,3.1,0,6.2,0,9.2,0,.8,0,1.1.2,1,1,0,.7,0,1.3,0,2,0,.6-.2.8-.8.8-3.1,0-6.2,0-9.3,0-.8,0-1.1.2-1,1,0,1.4,0,2.7,0,4.1,0,.7.2,1,.9,1,3.5,0,7,0,10.5,0,.8,0,1,.2.9.9,0,.6,0,1.2,0,1.8,0,.8-.3,1-1,1-5,0-9.9,0-14.9,0-.8,0-1-.2-1-1,0-3.3,0-6.7,0-10Z"/>
      <path class="cls-118" d="M196.4,155.5c-2.4,0-2.4,0-3.3-2.2-.4-.9-.4-2.2-1.2-2.7-.7-.4-1.9-.1-2.9-.1-1.7,0-3.3,0-5,0-.6,0-.9.2-1.1.7-.4,1.2-.9,2.4-1.3,3.6-.2.5-.4.7-1,.7-1,0-1.9,0-2.9,0-.9,0-1.1-.1-.7-1,2-5.1,4-10.3,6.1-15.5.6-1.6,1.3-3.2,1.9-4.9.2-.5.5-.8,1.1-.8,1.1,0,2.1,0,3.2,0,.6,0,.8.2,1,.7,2.7,6.9,5.5,13.7,8.2,20.5.3.8.1.9-.6.9-.5,0-1,0-1.5,0Z"/>
      <path class="cls-118" d="M320.5,155.5c-1.5,0-2.9,0-4.3,0-.5,0-.6-.3-.8-.6-.5-1.3-1-2.5-1.4-3.7-.2-.5-.4-.7-1-.7-2.5,0-5,0-7.4,0-.5,0-.8.2-.9.7-.4,1.2-.9,2.4-1.3,3.7-.2.5-.4.7-1,.7-1,0-2,0-3,0-.8,0-1-.1-.6-.9,2-5.1,4-10.3,6-15.4.6-1.6,1.3-3.3,1.9-5,.2-.6.5-.9,1.2-.9,1,0,2.1,0,3.1,0,.5,0,.8.1,1,.6,2.8,7,5.6,14,8.4,20.9,0,.1,0,.3.2.6Z"/>
      <path class="cls-118" d="M95,133.4q2.4,0,3.2,2.2c2.5,6.3,5,12.5,7.5,18.8.5,1.1.5,1.2-.7,1.1-1.2,0-2.7.5-3.6-.2-.8-.7-1-2.1-1.4-3.2-.8-1.9-.2-1.5-2.2-1.5-2.1,0-4.2,0-6.3,0-.6,0-1,.1-1.2.8-.4,1.2-.9,2.4-1.3,3.6-.2.6-.5.7-1,.7-1,0-2,0-3,0-.8,0-.9-.2-.6-.9,1.5-3.8,3-7.7,4.5-11.5,1.1-2.9,2.3-5.7,3.3-8.6.3-.9.8-1.3,1.7-1.2.4,0,.7,0,1.1,0Z"/>
      <path class="cls-118" d="M209,145.7c0-4.4.7-7.5,3.2-9.9,3.1-3,8.6-3.6,12.3-1.4,1.8,1.1,2.9,2.6,3.5,4.6.2.5,0,.6-.4.7-1.1.2-2.2.5-3.3.8-.5.1-.6,0-.7-.4-.9-2.3-2.4-3.2-4.7-3.1-2.3,0-4.1,1.3-4.7,3.5-.8,2.7-.8,5.4,0,8.1.7,2.2,2.4,3.5,4.7,3.6,2.3,0,4-1.1,4.7-3.5.3-1.1.8-1.2,1.7-.8.8.3,1.6.6,2.5.8.4.1.5.3.4.7-.9,3.7-4.1,6.2-7.9,6.5-6.5.5-11.3-3.8-11.3-10.2Z"/>
      <path class="cls-16" d="M71.9,58.8c-.2,0-.3,0-.4.1-1.1.9-2.1.8-3-.2-.4-.4-.8-.4-1.3,0-1,.6-1.9.6-2.8-.3-.7-.7-1.5-.8-2.4-.4-.8.4-1.4.1-1.8-.7,0-.1-.2-.2-.3-.4-.6-1.1-1.6-1.6-2.8-1.3-.5,0-1,0-1.2-.5-.7-1.6-2-2.2-3.6-2.3-.8,0-1-.4-1.1-1.1-.5-2.1-.5-2.1-2.7-1.8-.8.1-1.5.2-2.3.4-1.4.5-2.4,0-3.3-.9-.1-.1-.3-.2-.4-.3,0-1.8-1.7-2.3-2.7-3.2-.3-.3-.5-.6-.4-.9.3-1.3-.2-2.2-1.3-2.8-.6-.3-.7-.8-.4-1.3.8-1.4.4-2.5-.9-3.4-.8-.5-1-1.1-.6-2,.9-1.7.4-3.1-.8-4.4-.6-.7-.7-1.3,0-1.9.2-.2.3-.4.5-.6.5-.6,1.2-1,.2-1.9-.7-.6-.6-2-.9-3,0-.3.2-.4.4-.5,1.1-.8,2.1-1.5,3.2-2.3.4-.3.7-.2,1.1,0,7.3,5.5,15.6,8.5,24.6,10,.7.1,1.4.2,2,.5,1.9.7,2.5,2,1.6,3.9-.3.6-.7,1.1-1.1,1.7-1,1.5-1.8,3.1-1.9,5-.1,2.3.8,3.9,2.6,5.2,1,.7,2,1.1,3.2,1.5.8.3.9,0,.9-.7,0-6,0-12,0-18,0-1.1.3-1.9,1.2-2.7,1.5-1.2,1.4-1.3,2.9,0,.6.5.8,1.1.8,1.8,0,6.2,0,12.4,0,18.6,0,.9.2,1.1,1.1.8.6-.3,1.3-.5,1.9-.8,3.2-1.7,4.3-4.6,3.1-8-.4-1.1-1-2.2-1.7-3.2-2.1-3-1.4-4.9,2.2-5.5,6.8-1.1,13.3-3.1,19.4-6.4,2-1.1,3.9-2.3,5.7-3.7.5-.4.9-.4,1.4,0,1,.7,1.9,1.4,2.9,2.1.4.3.6.6.4,1-.5,1.1-.1,2.5-1.4,3.2-.3.2,0,.4.1.6.5.6,1,1.2,1.5,1.7.3.3.4.7,0,1,0,0,0,.1-.1.2-1.5,1.5-2,3.2-.9,5.2.3.5.1.8-.3,1.1-.1.1-.2.3-.4.3-1.3.9-1.8,2-.9,3.4.4.6,0,1-.5,1.3-1,.6-1.6,1.4-1.2,2.7.1.4,0,.8-.5,1-.6.5-1.2,1-1.8,1.4-.4.3-.6.6-.7,1.1-.2,1.3-1.9,2.4-3.1,2.1-1.5-.3-3-.5-4.4-.8-.6-.1-.9-.1-.9.6,0,2-1.2,2.9-3.1,2.9-.9,0-1.3.7-1.6,1.3-.5.9-1.1,1.3-2.1,1.1-1.1-.2-1.8.4-2.3,1.2-.7,1.1-1.5,1.7-2.8,1-.7-.4-1.3.2-1.8.6-.9.8-1.7.9-2.7.3-.6-.4-1.2-.2-1.6.3-.8.7-1.6.9-2.4.1-.1-.1-.3-.2-.5-.2-.2,1.6.3,2,1.8,1.7,1.3-.3,2.6-.5,3.8-.8.7-.2.9,0,.9.7,0,2.1,0,4.2,0,6.3,0,.7-.2.8-.8.6-1.4-.4-2.9-.7-4.3-1.1-.7-.2-1.1.3-1.5.6-.4.2,0,.7.1,1.1,0,.1.1.3,0,.4-.3,1.4,0,2.7-.2,4.1-.1,1,.2,1.9.4,2.8.2.6.5,1.2-.3,1.6-.1,0-.2.3-.3.4-1,1.8-3.2,2-4.5.4-.3-.4-.5-.7-1-.9-.5-.2-.4-1.3.1-1.5.6-.2.5-.5.4-.9,0-.1,0-.3,0-.4.4-1.7-.3-3.4.1-5.1.2-.7-.1-1.6-.4-2.3-.2-.5-.4-.3-.7-.2-1.6.4-3.2.7-4.8,1.1-.6.2-.7,0-.7-.5,0-2.2,0-4.4,0-6.6,0-.6.2-.7.7-.6,1.4.3,2.8.6,4.2.8,1.7.3,2,0,1.8-1.8Z"/>
      <path class="cls-16" d="M222.5,52.5c0,3,0,6.1,0,9.1,0,1.2.3,1.5,1.6,1.5,2.2,0,4.4,0,6.5,0,1.7,0,2.1-.4,2.1-2.1,0-1.3,0-2.5,0-3.8,0-.5.1-.8.7-.8,4.4,0,8.8,0,13.2,0,.6,0,.8.3.8.8.1,1.9-.3,3.7-.6,5.6-.7,4.7-4.1,6.6-8.1,7.7-3.1.8-6.2,1.4-9.5,1.6-4.3.2-8.5-.4-12.7-1.1-2.5-.4-4.7-1.5-6.6-3.1-.9-.8-1.5-1.7-1.8-2.8-.8-2.5-1.1-5.2-1.1-7.8,0-4.9,0-9.8,0-14.7,0-3,1.5-4.9,3.8-6.4,3.1-2.1,6.7-2.9,10.4-3.4,5.8-.9,11.5-.4,17.2,1,2.3.6,4.4,1.6,6.2,3.1.7.6,1.3,1.3,1.6,2.3,1,3,1.6,6,1.5,9.1,0,.6-.2.8-.8.8-4.5,0-8.9,0-13.4,0-.7,0-.8-.3-.8-.8,0-1.6,0-3.2,0-4.8,0-1.1-.3-1.4-1.3-1.4-2.6,0-5.2,0-7.7,0-.9,0-1.2.4-1.2,1.2,0,3.1,0,6.2,0,9.2Z"/>
      <path class="cls-16" d="M134.1,52.3c0-6,0-12,0-18,0-.8.2-1.1,1.1-1.1,9,0,18.1,0,27.1,0,.8,0,1,.2,1,1,0,2.4,0,4.9,0,7.3,0,.8-.3,1-1,1-4,0-8,0-12.1,0-.8,0-1,.2-1,1,0,1,0,2.1,0,3.1,0,.7.2.9.9.9,3.7,0,7.5,0,11.2-.1.8,0,1.2.1,1.1,1.1,0,2.3,0,4.6,0,6.9,0,.8-.3,1-1,1-3.7,0-7.4,0-11.1,0-.8,0-1.2.1-1.1,1.1,0,1.3,0,2.6,0,3.9,0,.8.2.9,1,.9,4.4,0,8.8,0,13.3,0,.9,0,1.1.2,1,1.1,0,2.4,0,4.9,0,7.3,0,.7-.2.9-.9.9-9.5,0-19,0-28.5,0-.9,0-1-.3-1-1,0-6.1,0-12.1,0-18.2Z"/>
      <path class="cls-16" d="M331.3,71.6c-2.1,0-4,0-5.9,0-3.1,0-6.3.1-9.4.2-.7,0-1-.2-1.1-.9-.9-4.7-1.9-9.3-2.8-13.9-.1-.7-.4-.9-1.1-1-2.6-.2-2.6-.2-2.6,2.5,0,4,0,8.1,0,12.1,0,1-.2,1.2-1.2,1.2-4.6-.2-9.3-.3-13.9-.4-.7,0-.8-.3-.8-.9,0-12.1,0-24.3,0-36.4,0-.7.2-1,.9-.9.9,0,1.9,0,2.8,0,6.6,0,13.1-.1,19.7-.2,2.3,0,4.5-.3,6.8.2,4.8,1,8.3,5,8.8,10,.2,2.7,0,5.3-1.4,7.7-.8,1.5-1.9,2.8-3.5,3.5-.6.3-.6.6-.4,1.2,1.6,4.9,3.3,9.9,4.9,14.8.1.3.2.6.4,1.2Z"/>
      <path class="cls-16" d="M250.5,56.2c0-4.8,0-9.6,0-14.5,0-4.3,4.5-8.8,8.9-8.9,7.1,0,14.1,0,21.2,0,2.8,0,4.8,1.4,6.4,3.6,1.6,2.2,2.5,4.6,2.5,7.5,0,8.9,0,17.9,0,26.8,0,.9-.2,1.1-1.1,1.1-4.6,0-9.1,0-13.7,0-.8,0-1.1-.2-1-1,0-1.7,0-3.3,0-5,0-.6-.1-.8-.8-.8-1.6,0-3.2,0-4.8,0-.6,0-.8.2-.8.8,0,1.7,0,3.4,0,5.1,0,.7-.2.9-.9.9-5,0-10,0-15.1,0-.7,0-1-.2-1-.9,0-4.9,0-9.8,0-14.7,0,0,0,0,0,0Z"/>
      <path class="cls-16" d="M167.3,52.4c0-6,0-12,0-18.1,0-.8.2-1.1,1-1.1,6.8,0,13.7,0,20.5,0,2.9,0,5.9.2,8.7,1,1.3.4,2.5.9,3.6,1.7,2.1,1.5,3.2,3.5,3.3,6.1.2,2.8.3,5.7-.2,8.5-.4,2-1.5,3.4-3.3,4.3-2.2,1.2-4.7,1.5-7.2,1.8-3.2.4-6.4.2-9.5.2-.9,0-1.2.2-1.2,1.2,0,4.2,0,8.4,0,12.7,0,.8-.2,1-1,1-4.7,0-9.4-.1-14.1-.2-.8,0-.9-.3-.9-.9,0-6.1,0-12.1,0-18.2Z"/>
      <path class="cls-147" d="M155.8,236.4c1.6.8,3.1.4,4.7.1.5-.1.9-.3,1.1.5.2.7.9,1.1,1.5,1.3,1.7.5,3.4.2,4.9-.7.3-.1.6-.3.2-.7-.2-.3-.3-.8-.9-.4-1.2.7-2.4,1-3.8.6-.4-.1-.9-.2-.9-.7,0-.5.4-.7.8-.9,1.3-.5,2.5-1.1,3.8-1.6.4-.2.6-.4.4-.9-.2-.5-.4-.5-.9-.4-1.4.4-2.8,1-4.1,1.7-1.7.9-3.6,1.3-5.5,1.2-.3,0-.6,0-.7-.3,0-.3.2-.5.4-.7.9-.9,2.1-1.5,3.2-2,.5-.2.7-.3.5-.9-.3-.7-.6-.4-1-.2-2.1.9-4.3,1.6-6.6,1.4-.4,0-1,0-1.1-.5-.2-.5.4-.8.7-1.1.7-.6,1.6-.8,2.4-1.1.4-.2.9-.3.6-1-.3-.6-.6-.4-1-.3-1.7.7-3.4,1.3-5.3,1.6-1,.2-2,.3-3,0-.8-.1-1-.5-.5-1.2.6-.8,1.4-1.4,2.3-1.9.7-.4,1.3-.7,2-1.1.4-.2.7-.4.3-.9-.3-.5-.6-.5-1-.2-1.7,1-3.4,2.1-5.5,2.4-.7.1-1.5.2-2.2.2-.6,0-1.4,0-1.6-.8-.1-.8.4-1.4,1.1-1.7,1-.5,1.9-.9,2.7-1.7.3-.3.9-.5.4-1.1-.4-.6-.8-.5-1.3-.1-.6.5-1.3.8-1.9,1.3-1.9,1.5-3.9,1.3-6,.8-1-.3-1.2-1-.5-1.9.6-.8,1.4-1.4,2.2-2,.4-.3.6-.5.3-1-.3-.5-.6-.4-1-.2-1.8.8-3.6,1.4-5.6,1.2-1,0-1.8-.4-2.5-1.1-.9-.9-.7-1.5.5-1.9.3-.1.9,0,.9-.6.1-.7-.3-1.1-1-.9-1.1.3-2.1.9-3.3,1-2.5,0-3.5-.8-3.5-3.3,0-.4,0-.8,0-1.2,0-.6-.5-.4-.8-.5-.4,0-.4.2-.4.5,0,1-.1,1.9.1,2.9.5,2.1,2.1,3.2,4.4,2.9.9,0,1.3-.1,1.5.9.2,1.1,1.1,1.7,2.1,2.2,1.1.5,2.3.7,3.5.5.5,0,.9-.1,1.5-.2-.1.3-.2.5-.3.7-.6,1.4-.3,2.5,1.1,3.1,1,.5,2.1.6,3.2.5.4,0,.9,0,1.3,0-.2,2.1.4,2.8,2.5,3.1,1,.1,2.1-.1,3.2-.2-.3.8-.6,1.5,0,2.2.6.7,1.4.8,2.2.9,1,.1,2.1,0,3.1-.3.4,0,.8-.2.7.5-.1.7.3,1.2.9,1.5-.2.3-.5.4-.8.5-3.6,1.8-7.2,3.6-10.8,5.4-2.2,1.1-4.5,1-6.8.5-.4,0-.7-.3-1.1-.5-.6-.4-1.1-.9-1.1-1.6,0-.5.9-.5,1.3-.7,3.3-1.3,6.7-2.5,10.1-3.7.4-.1.8-.2.6-.9-.2-.7-.6-.5-1-.3-3.9,1.4-7.7,3-11.7,4.2-2.5.8-5,.4-7.5-.5-.5-.2-.8-.6-1-1.1-.3-1,0-1.5,1-1.7,3.8-.8,7.6-1.7,11.5-2.5.3,0,.8,0,.8-.6,0-.8-.5-.7-1-.6-3.2.7-6.3,1.5-9.5,2.1-2.3.4-4.4,1.4-6.7,1.4-.9,0-1.7,0-2.6-.3-.6-.2-1-.6-1-1.3,0-.7.5-.9,1.1-1.1,3.7-1.1,7.4-2.3,11.1-3.5.4-.1,1,0,.7-.9-.2-.8-.6-.5-1.1-.3-3.6,1.1-7.2,2.2-10.7,3.4-1.3.4-2.6.6-4,.4-1.8-.3-3.6-.5-5.4-1-.5-.2-.9-.3-1.3-.7-.4-.4-.7-.9-.6-1.4,0-.4.7-.3,1-.4,4.2-.9,8.4-1.8,12.6-2.7.4,0,.9,0,.7-.7-.2-.7-.5-.6-1-.5-4.8,1-9.7,2.1-14.5,3.1-3.1.7-6.8-1-8.2-3.9,2.8-.4,5.5-.9,8.3-1.3,2.1-.3,4.2-.7,6.3-1,.5,0,.8-.2.7-.8,0-.7-.5-.5-.9-.5-3.7.6-7.4,1.1-11.1,1.7-1.4.2-2.8.4-4.2.7-.1,0-.3,0-.4,0-2.9-.8-5.8-1.6-7.9-3.8-.3-.3-.5-.6-.7-.9-.1-.2-.2-.5-.4-.8,1.4,0,2.8-.2,4.1-.2,5.1-.2,10.2-.4,15.3-.6.4,0,.9.1.9-.7,0-.8-.6-.6-1-.6-6.7.3-13.4.6-20.1.8-2.5,0-4.8-.5-7.1-1.6-1.3-.6-2.4-1.6-2.9-3-.2-.6,0-.8.5-.8,2.5,0,5-.2,7.5-.3.4,0,.9,0,.9-.7,0-.8-.6-.6-1-.5-3,.1-6,.5-8.9.4-3.4-.1-6.7-1-9.6-3.1,0,0-.1,0-.1-.1-.6-.5-1.3-1.2-1.1-1.9.2-.5,1.1-.2,1.8-.2,10.4,0,20.8,1.1,31,3.1.4,0,.9.3,1-.4.2-.8-.4-.7-.8-.8-7-1.4-14.1-2.3-21.3-2.7-3.9-.2-7.9-.7-11.8-.3-2.9.3-5.4-.2-8-1.1-2.7-1-4.8-2.9-6.6-5.2,1.7-.1,3.2.1,4.8.2,10.1.8,20.1,2.3,30,4.5,14,3.1,27.5,7.6,40.7,13.1,8.6,3.5,17,7.4,25.7,10.6,6.1,2.3,12.3,4.2,18.8,5,1.3.2,2.7.2,4,.3.5,0,.6-.2.6-.7,0-.4-.1-.6-.6-.6-9-.4-17.3-3.2-25.5-6.5-9.8-3.9-19.4-8.3-29.2-12.1-13-5-26.3-9-40.1-11.7-7.2-1.4-14.4-2.4-21.6-3.1-.2,0-.4,0-.6-.1,4.2-.4,8.3-.5,12.5-.4,20.4.6,40,5.5,59.3,11.7,11.9,3.8,23.6,8.2,35.2,12.9.7.3,1.3.3,2,0,7-3.5,14.4-6,22.1-7.1,9.4-1.3,18.5-.2,27.3,3.4.8.3,1.3.3,2.1,0,15.8-8,32.2-14.3,49.5-18.4,9.4-2.2,18.9-3.8,28.6-4.6,7.9-.7,15.8-.8,23.7-.5,1,0,2,.1,3,.3-1.8.3-3.6.6-5.5.8-12.4,1.8-24.6,4.5-36.6,7.9-21.5,6.2-42.1,14.7-61.8,25.3-1.9,1-2.9.4-3-1.7-.1-1.5,0-3,.9-4.3.4-.7.9-1.3,1.8-1,.6.2.7-.4.8-.7.2-.4-.2-.5-.5-.6-.9-.4-1.8-.1-2.5.5-1.8,1.7-2.4,6-1.2,8.2.8,1.4,2.1,1.8,3.5,1,9.2-5,18.6-9.5,28.3-13.6,1.1-.5,1.2-.5,1.3.8.2,1.3-.3,2.3-1.5,2.9-.9.4-1.9.6-2.9.7-.5,0-.6.1-.5.6.7,2.3.2,3.4-2.9,3.1-.8,0-1.6-.2-2.5-.3,0,.6.5,1,.7,1.4,1,1.8.6,2.6-1.5,2.7-1.2,0-2.5-.1-3.7-.3-.2,0-.3,0-.6,0,.3.6.6,1.1.9,1.6.7,1.5.4,2.1-1.3,2.4-1.4.2-2.8.1-4.3,0,.3.8.9,1.4,1.3,2.1.4.7.1,1-.6,1.1-.6,0-1.2,0-1.8,0-.4,0-.8,0-1,.4-.2.5,0,.8.3,1.1.9.8.9,1.1-.3,1.5-1.1.4-2.2.5-3.4.6-.5,0-.7.1-.7.7,0,.5.3.6.7.6,1.4-.1,2.9-.3,4.2-.8,1.2-.5,1.5-1,1.2-2.3-.1-.4,0-.5.3-.5,0,0,0,0,.1,0,2.2-.4,2.5-.8,2-3,1,0,1.9,0,2.9-.4,1.6-.5,2-1.2,1.8-2.8,0-.5,0-.7.6-.6.8.1,1.6,0,2.4-.1,1.6-.3,2.3-1.3,2-3,0-.2,0-.4,0-.6.8-.1,1.5,0,2.2-.2,1.7-.4,2.5-1.3,2.4-3.1,0-.6.1-.7.6-.8,1.1-.2,2.1-.5,2.9-1.3,1.2-1.2,1.4-2.6,1-4.2-.2-.7,0-.9.6-1.2,5.1-2,10.2-4,15.4-5.8,1.1-.4,1.4.3,1.8,1,.5.8.4,1.5-.4,2-1.1.7-2.4.9-3.7,1.1-.3,0-.9-.2-.9.5,0,.5,0,1,.7.9.4,0,.9,0,1.1.5.2.5,0,.9-.4,1.3-1.3,1.5-3,1.7-4.9,1.6-.5,0-1-.2-1.6,0,.4.6.7,1.2,1,1.8.6,1.1.3,1.7-.9,2-1,.3-2.1.2-3.1.2-.4,0-.8,0-1,.5-.2.5,0,.7.2,1,.5.5,1.2,1.1.9,1.8-.3.8-1.3.7-2,.7-.5,0-1.1,0-1.6,0-.5,0-1,0-1.6,0,0,.5.4.7.6,1.1.7,1,.6,1.3-.6,1.5-.8.2-1.6.2-2.4.3-.2,0-.4,0-.8.1.3.4.5.7.7,1,.8,1.2.6,1.9-.8,2.3-1.2.3-2.5.4-3.8.4-.3,0-.7,0-1.1,0,.3.6.5,1,.7,1.5.2.6,0,1.1-.7,1.2-1.2.2-2.3,0-3.4-.2-.4,0-.8-.2-1.2,0,.1.4.3.8.4,1.2.3,1,0,1.5-1,1.8-1.2.3-2.3.2-3.5.1-.3,0-.5,0-.8,0,0,.2,0,.3,0,.3.4,1.9.2,2.2-1.7,2-.6,0-1.2-.2-2-.4.2.6.3,1.1.4,1.7.1.7-.2,1.1-.9,1.3-.9.3-1.8.2-2.7,0-.4,0-.7,0-.7.5,0,.5,0,.8.6.8,1.1,0,2.2.2,3.3-.2,1-.3,1.7-.9,1.7-2,0-.5.2-.6.7-.5,1.7,0,2.2-.2,2.8-2,.1-.4.4-.3.6-.3.9,0,1.8,0,2.7-.3,1.1-.3,1.9-1,1.9-2.2,0-.4.1-.6.6-.5.8.1,1.7.2,2.5,0,1.6-.3,2.1-1,1.8-2.7,1.1-.2,2.3-.2,3.4-.6,1.7-.6,2.2-1.3,1.9-3,0-.4.1-.4.4-.5.6-.1,1.2-.3,1.8-.6.6-.3,1-.8.9-1.4,0-.7.3-.7.7-.7.6,0,1.3,0,1.9-.3,1.5-.5,2-1.6,1.3-3.1,0-.2-.2-.3-.3-.6.6,0,1.2,0,1.7-.1,2.5-.3,3.3-1.3,2.8-3.7,1.3,0,2.5-.3,3.7-.9,1.6-.9,2.2-2,1.9-3.8,0-.5.2-.4.4-.5.5-.2,1-.3,1.5-.6,1.8-.9,2.2-2.4,1.2-4.1-.1-.3-.3-.5-.5-.8.6-.4,1.3-.5,2-.8,15.1-5,30.4-8.7,46.1-11.2,4.4-.7,8.8-1.3,13.2-1.8.7,0,.7.2.6.7-.8,3.4-3.5,5.7-7.6,6.5-16,2.8-32,5.6-48,8.5-.5,0-1,0-.9.9.2.8.7.4,1.1.4,12.8-2.2,25.6-4.5,38.4-6.7,1.9-.3,3.7-.7,5.8-1-1.6,2.1-3.4,3.5-5.6,4.5-2.3,1-4.8,1.3-7.2,1.6-7.9,1.1-15.7,2.1-23.6,3.2-3.2.4-6.5.9-9.7,1.3-.2,0-.5,0-.7.1-.4,0-.8,0-.7.7.1.6.4.6.9.6,8.2-1.1,16.4-2.2,24.6-3.3,3.7-.5,7.4-1,11.2-1.5-.4.8-1,1.3-1.6,1.8-2.9,2.5-6.4,3.6-10.1,4.2-3,.5-6.1.5-9.1.5-5.7,0-11.4.2-17.1.4-.6,0-.6.2-.6.7,0,.7.5.6.9.6,4.6-.1,9.1-.2,13.7-.4.2,0,.4,0,.7,0-1,1.4-2.1,2.3-3.4,3.1-2.8,1.6-5.8,2.1-9,2-1.3,0-2,.1-2.4,1.5-.9,2.6-3.2,3.5-5.7,3.9,0,0-.2,0-.3,0-1.1,0-1.8.2-2.1,1.5-.4,1.9-1.9,2.7-3.9,2.4-.6,0-.9,0-1.1.7-.2,1.2-.9,1.8-2.2,2-1.1.1-2.2,0-3.3-.3-.3,0-.5-.1-.6.3-.3,2.3-1.1,3.1-3.4,3.3-.8,0-1.2.4-1.7,1-1.3,2-2.9,2.5-5.2,1.8-.6-.2-.8,0-1,.5-.7,1.4-1.5,2.7-2.7,3.7-1.1,1-2.4,1.5-4,1-.5-.2-.8,0-1.1.4-.5.9-1.1,1.7-1.6,2.5-.6.9-1.4,1.4-2.4,1.2-.6,0-.9.1-1.2.6-.7,1.3-1.9,2.1-3.4,2.2-.5,0-.9.3-1.2.7-1,1.4-2.2,2.4-3.9,2.8-.3,0-.5.2-.6.4-.6,1-1.6,1.3-2.7,1.3-.6,0-.9.1-1.2.7-1.3,2.2-2.4,2.7-5,2.2-.5,0-.8.1-1.1.4-1.3,1-2.8,1.8-4.4,2-.3,0-.7.2-.9-.2-.2-.3.2-.5.3-.8.2-.3.4-.6.5-1,.2-1.6,1.3-2.2,2.8-2.6,1.5-.4,2.8-1.3,3.9-2.3.3-.3.4-.5,0-.8-.2-.2-.3-.6-.8-.2-2.6,2.4-5.8,3-9.1,3.5-2.7.4-5.3,1.1-7.8,2.2-1.8.7-3.7,1.2-5.7.9-.4,0-.7-.1-1.1-.3-.8-.4-1.7-1-1.8-1.9,0-.7.9-1,1.5-1.4,1.6-1,3.3-1.5,5.1-1.7.4,0,.9,0,.8-.7,0-.5-.2-.6-.7-.6-2.4.4-4.8,1-6.7,2.6-2,1.7-4.2,3.2-5.3,5.7-1.8-4.3,1.9-10.1,8-12.8,0-.3-.2-.4-.3-.6-1.7-2.1-1.4-4.9.7-6.6,1.6-1.3,3.5-2,5.5-2.7,2.7-.9,5.1-2.4,7.2-4.5.3-.3.6-.5.1-.9-.4-.4-.6-.4-1,0-1.9,2-4.2,3.4-6.8,4.2-2,.7-3.9,1.5-5.6,2.8-.6.5-1.2,1-1.5,1.7-.4.9-1.1,1.5-1.9,2-2.1,1.3-4.1,2.7-6.5,3.2-.6.1-1.2.2-1.9-.2.7-.7,1.4-1.3,2.1-1.9.4-.3.4-.6,0-1-.4-.5-.6-.3-1,0-.5.5-1,.9-1.5,1.4-1.3,1.4-3,1.6-4.7,1.8-.2,0-.5,0-.7,0-.3,0-.6-.3-.7-.7,0-.4.2-.5.5-.7,1.4-.9,2.8-1.9,4.2-2.8.4-.3.7-.4.3-1-.4-.6-.7-.3-1,0-1.1.7-2.2,1.4-3.2,2.1-1,.8-2.2,1.1-3.4,1.2-1.5.1-3,.3-4.5,0-.4,0-.8-.1-.9-.5-.1-.4.2-.7.6-1,.9-.7,1.9-1.4,2.8-2.1.4-.2.4-.4.1-.8-.2-.3-.4-.7-.9-.3-1.3,1.1-2.8,1.9-4.1,3.1-1.5,1.4-5.5,1.2-6.8-.4-.4-.5-.4-.7.2-1,2.5-1.6,4.9-3.2,7.3-4.8.3-.2.8-.3.5-.9-.1-.2,0-.2.2-.2Z"/>
      <path class="cls-184" d="M125.1,324.1c4.9,5.3,11.1,8.5,17.1,11.8,10.4,5.8,21.7,9.3,33.4,11.5,10,1.9,20.2,2.7,30.4,2.4,16.7-.5,32.8-3.4,48.1-10.2,4.3-1.9,8.5-4.1,12.4-6.8,3.1-2.2,6.3-4.3,8.7-7.3,1.1-1.4,2.1-3,2.3-4.8.5,0,.5.5.7.8,2.7,4.4,3.3,9.3,2.8,14.3-.2,1.7-.5,3.4-.9,5.1-.1.6-.4,1.1-.9,1.5-10.4,8.6-22.2,14.5-35,18.6-14.5,4.6-29.4,6.5-44.6,6-23.9-.7-46.2-6.8-66.9-18.8-1.9-1.1-3-2.4-3.6-4.5-1.4-5-3-9.9-3.7-15.1-.2-1.4-.3-2.9-.1-4.4Z"/>
      <path class="cls-96" d="M263.5,333.2c-2.7,1.7-5.4,3.1-8,4.4-8.9,4.3-18.3,7-28,8.8-9,1.6-18.2,2.4-27.3,2.2-16.6-.3-32.7-3.1-48.1-9.4-5.3-2.2-10.3-4.8-15.1-7.8-.7-.5-.8-.9-.5-1.6.8-2.1,2.4-3.6,4.1-5,4.7-3.8,10-6.4,15.4-8.9.4-.2.7,0,1.1,0,9.3,2.2,17.7,6.3,25.5,11.6,2.7,1.9,5.4,2.7,8.7,2.8,9,.3,17.7,2.2,25.7,6.5,2.8,1.5,5.4,3.3,7.8,5.5.6.6.9.5,1.3-.2,3.5-5.1,7.1-10.2,10.6-15.3.5-.7.8-.9,1.7-.5,2.7,1.2,5.4,2.5,8.2,3.5,1.8.7,3.8.9,5.7,1.4,2.5.6,5.1,1.1,7.6,1.7,1.1.3,2.3.3,3.8.4Z"/>
      <path class="cls-184" d="M140,293.9c0-1.1.8-1.1,1.5-1,4.3,0,8.7.1,13.1.2,1.3,0,2.3.7,3.5,1.2.4.1.2.4.1.6-.8,1.5-1.6,3-2.3,4.6-.2.4-.5.4-.9.5-5.4,1.1-10.6,2.9-15.4,5.8-.4.2-.8.3-1.2.3-2.6,0-5.3-.2-7.9-.2-4.6,0-8.7,1.5-11.9,4.9-1.4,1.5-2.7,3.1-4.1,4.7-2.4,2.7-5.3,4.4-8.8,5.4-3.2.9-6.2,2.4-9.3,3.6-8.7,3.5-17.5,7-26.2,10.5-.3.1-.5.3-.9.2,2.3-2.9,4.5-5.8,6.7-8.6,1-1.2,1.9-2.5,2.9-3.7.3-.4.7-.6.3-1.3-.4-.6-.8-.4-1.3-.3-5.2,1.3-10.4,2.6-15.5,4-.3,0-.5.2-.8,0,3.6-2.9,7.5-5.3,11.6-7.4,7.2-3.7,14.8-6.5,22.7-8.5,4.2-1,7.8-3.2,10.9-6.1,1.5-1.4,2.8-2.8,4.2-4.3,3.1-3.4,6.9-5.6,11.5-6.1.4,0,.9,0,1.3,0,4.8,0,9.6.2,14.5.2.9,0,1.2.7,1.9,1.1Z"/>
      <path class="cls-184" d="M319.6,300.5c-.2.4-.6.4-.9.6-3.5,1.7-6.9,3.5-10.4,5.2-.4.2-.8.4-.7,1,0,.7.5.6.9.7,4.8.8,9.6,1.5,14.5,2.3.1.4-.2.4-.4.5-5.2,3.1-10.7,4.3-16.7,3.8-5.2-.4-10.1-2-15.1-3-3.1-.6-6.3-1.1-9.4-.2-2.3.6-4.2,1.9-5.8,3.6-.3.3-.5.6-1.1.3-3-1.7-6.1-3.1-8.9-5-1-.6-1.9-1.3-2.7-2.2-1.1-1.4-1.4-3-.7-4.7,1-2.4,2.8-4.1,5.1-5.1,4.5-2,9.1-2.7,14-2,8,1.2,15.9,2.4,23.9,3.5,4.7.6,9.5,1,14.4.8Z"/>
      <path class="cls-184" d="M197.6,309.4c-.1.2-.3.4-.4.6-3.3,5-6.6,9.9-9.9,14.9-.4.7-.6.7-1.2.1-8.8-8.9-19.2-15.2-31.2-18.6-.6-.2-1.3-.4-1.9-.7-.2,0-.5,0-.4-.4,0-.2.2-.2.5-.3,3.8-.4,7.3-1.9,10.5-3.9,1.6-1,3-2.2,4.3-3.6.4-.4.7-.5,1.3-.3,9.2,3.9,18.5,7.8,27.8,11.7.2,0,.6,0,.6.5Z"/>
      <path class="cls-184" d="M186.7,328.8c-3.2-2.1-6.4-4.3-9.7-6.1-7.4-4.1-15.1-7.3-23.5-8.8-.2,0-.4-.1-.6-.2q1.1-1.8,3.1-1.3c11.1,2.9,20.8,8.4,29.8,15.3.3.2.5.7.9.4.2-.2.7-.4.5-.9,0,0,0,0,0-.1,0,0,0,0,0,0,.5,0,.6-.5.8-.8,3.5-5.2,6.9-10.4,10.4-15.6.3-.5.5-.8,1.2-.5,9.3,4,18.6,7.9,27.9,11.8.1,0,.2.1.4.2-1.4,2.2-2.8,4.4-4.2,6.6-.3.5-.6.3-.9.2-4.6-1.5-9.4-2.4-14.2-2.9-5.1-.5-10.2-.4-15.3,0-1.2.1-2.4.2-3.6.4-.4,0-1.2-.2-1.1.7,0,.2-.3.1-.4.1-.6,0-.4.4-.5.7,0,.5.3.5.6.5.5,0,1.1,0,1.6,0,0,.2-.1.3-.3.3-1,0-2,0-2.9,0Z"/>
      <path class="cls-184" d="M229.2,290.1c5.4.4,10.6,1.7,15.4,4.3.6.3.8.5.3,1.2-4.1,5.9-7.8,12-11.6,18.1-.3.5-.5.6-1.1.4-5.7-2.5-11.4-4.9-17.1-7.3-.8-.3-.6-.7-.4-1.2,2.3-5.5,6.3-9.6,11.3-12.6,1-.6,1.8-1.3,2.3-2.3.2-.4.4-.6.9-.5Z"/>
      <path class="cls-184" d="M149.7,310.6c.9.3,1.6.6,2.4.8.5.1.5.3.2.7-.6.8-1.2,1.6-1.8,2.5,1.2.2,2.2.4,3.3.6-.2.4-.6.4-.9.6-4.6,2.3-9.2,4.6-13.2,7.9-2,1.7-3.9,3.5-4.7,6.1-.1.4-.3.3-.6.2-2.9-1.8-5.8-3.6-8-6.3-1.1-1.4-1.1-1.7-.1-3.2,6.4-10,15.4-16.1,26.9-18.9.3,0,.7-.3.8,0,.2.3-.2.5-.4.7-.9,1-1.8,2.1-2.7,3.1-.3.4-.5.6.1.8.6.3,1.6.3,1.7,1,0,.5-.8,1-1.2,1.5-.5.6-1.1,1.3-1.7,2Z"/>
      <path class="cls-184" d="M169.5,296c2-.8,2.8-2.1,2.6-4.1.4.1.7.3,1,.4.7.2,1,.5.8,1.4-.4,1.9,1.3,3.6,3.3,3.3.9-.1,1.8-.5,2.5-1.2.4-.4.7-.4,1.2-.2,8.6,3.7,17.2,7.3,25.8,11,.5.2.7.4.7,1,.1,1.5,1.1,2.5,2.4,3,1.2.5,2.4.4,3.4-.6.4-.4.6-.3,1-.1,10.9,4.6,21.7,9.3,32.6,13.9.4.2.6.3.4.9-.5,1.1-.8,2.3-1,3.7-25.5-10.8-51-21.5-76.7-32.3Z"/>
      <path class="cls-184" d="M266.1,331c0,0,.1-.2,0-.2-1.4,0-1.4-.9-1.3-2,.4-5.1-.5-10-2.2-14.9-.6-1.7-.9-3.5-1.1-5.4,2.7,2.9,6.1,4.3,9.3,6.1,1,.5,1.9,1,2.9,1.5,2.2,1.1,3,3.3,2.2,5.6-.5,1.4-1.4,2.6-2.4,3.8-1.7,1.8-3.6,3.3-5.7,4.8-.2.2-.7.2-.5.8.2.4-.2,0-.2,0-.3-.2-.6,0-.8.2,0,0-.2,0-.2,0,0-.1,0-.2,0-.4Z"/>
      <path class="cls-184" d="M191.5,283.4c-4.2,1.1-8,2.6-11.8,4.3-1.1.5-2,1.1-2.9,1.9-.3.3-.6.4-1,.2,0,0,0,0,0,0-1.2-.5-2.3-1-3.5-1.6,0-1.4-.1-2.9-.2-4.3,0-.4.2-.6.4-.9,2-2.3,4-4.5,6-6.8.4-.4.7-.5,1.2-.4.6.2,1.2.3,1.9.4,3,.3,5.5,1.6,7.3,4.1.8,1.1,1.8,2,2.8,3.1Z"/>
      <path class="cls-161" d="M213.8,284.4c1.1-1.4,2.2-2.6,3.2-3.9.1-.2.4-.2.6-.2,2.7.2,5.4.5,7.8,2,3.4,2.1,4,5.4,1.7,8.5-.4.5-.8.8-1.3,1.1-5.3,3.2-9.5,7.5-11.9,13.3-.3.8-.4,1.5-.5,2.3-.2,1.1-.6,2-1.7,2.4-.9.3-2.2-.2-2.9-1.2-.8-1.1-.6-2.5.8-3.2,1.1-.6,1.6-1.5,2.1-2.6,2.1-4.8,5.5-8.6,9.9-11.5.8-.6,1.7-1.1,2.3-1.9.9-1.3.7-2.7-.7-3.6-1.6-1.1-3.6-1.3-5.5-1.4-1.2,0-2.3,0-3.7,0Z"/>
      <path class="cls-184" d="M193.3,328.7c10.9.4,21.4,2.6,31.3,7.2.9.4,1.2.3,1.7-.5,2.1-3.5,4.3-6.9,6.4-10.3.4-.6.7-.8,1.4-.5,1.8.8,1.8.8.7,2.4-3.1,4.4-6.2,8.9-9.3,13.3-.3.5-.6.6-1.1.2-6.7-5.6-14.5-8.7-22.9-10.3-3.5-.7-7.1-1-10.7-1.2.8-.6,1.6-.2,2.4-.2Z"/>
      <path class="cls-184" d="M194.9,327.2c9.7-.7,19.3.1,28.6,3.2.5.2.8,0,1-.4,1.4-2.2,2.8-4.5,4.2-6.7.4-.6.6-.8,1.3-.4.6.4,1.7.4,1.9,1,.1.5-.6,1.2-1,1.9-1.7,2.8-3.5,5.6-5.2,8.4-.3.6-.6.7-1.3.4-9.4-4.2-19.2-6.3-29.4-6.9-.1,0-.3-.1-.2-.3Z"/>
      <path class="cls-184" d="M191.9,296.7c3-1.2,5.9-2.2,8.6-3.5,1.7-.8,3.1-.9,4.7,0,.7.4,1.6.7,2.5,1-1.5,2.3-3,4.6-4.5,6.8-.3.4-.6.1-.9,0-3.4-1.4-6.8-2.9-10.4-4.5Z"/>
      <path class="cls-161" d="M176.9,296c-1,0-1.6-.3-1.9-1-.4-.8-.3-1.7.3-2.4.7-1,1.6-1.8,2.5-2.6.7-.6,1.5-1.2,2.4-1.6,3.7-1.5,7.4-3.1,11.3-4,1.1-.3,1.3,0,1.2,1.1,0,1.7-.8,2.5-2.5,2.9-3.4.9-6.6,2.4-9.3,4.7-.6.5-1.1,1.1-1.6,1.6-.7.8-1.5,1.1-2.3,1.2Z"/>
      <path class="cls-184" d="M182.2,323.4c-5.9-4-12-7.4-18.7-9.9-2.8-1.1-5.7-2-8.6-2.6-.9-.2-1.9-.3-2.9-.8.6-.8,1.3-1.5,1.9-2.2.4-.5.7-.2,1.1,0,7.2,2.1,13.9,5.2,20,9.5,2.6,1.8,5.1,3.8,7.4,6,0,.2,0,.3-.2.2Z"/>
      <path class="cls-147" d="M139.3,291.4c-1.1-1.4-1.9-3-1.2-4.8.2-.6.2-1.1,0-1.7-1.1-3.5.6-6.7,4.2-7.7.8-.2,1.1,0,1.5.7,1.2,2,1.5,4.3,1.7,6.5,0,.8.1,1.7.2,2.5,0,.3,0,.7-.4.6-3.1-.5-4.5,1.3-5.6,3.7,0,0,0,.1,0,.2,0,0,0,0-.2,0Z"/>
      <path class="cls-118" d="M215.1,276.9l4.5-1.5c0,0,0,.1.1.2-1.8,2.2-3.5,4.4-5.4,6.5-1,1.1-1.5,2.2-1.3,3.8.4,2.5.4,5.1.6,7.6,0,.3,0,.6,0,1.1-2.5-3.3-4.9-6.4-7.3-9.5,0-.2.2-.3.3-.5.9-.7,1.9-1.1,2.8-1.6.6,0,.6-1.2,1.4-1,.2,0,.4,0,.6,0,.6.3,1.1.2,1.4-.4.1-.3.4-.5.6-.6.2-.2.3-.4.4-.6,0-.1,0-.3.1-.4.5-1,.7-2.1,1.1-3.1Z"/>
      <path class="cls-147" d="M262.9,331.8c-3.6,0-7-1.2-10.5-1.9-1.4-.3-2.9-.6-4.3-1-.4,0-.7-.2-.6-.8.3-1.6.7-3.2,1.6-4.6.3-.5.5-.7,1.1-.3,3.6,2.3,7.2,4.6,10.8,6.9.7.4,1.3,1,1.9,1.6Z"/>
      <path class="cls-184" d="M238.1,316.5c2.5-4,5-8,7.4-12,.3-.4.5-.4.9-.3.9.4,1.9.7,2.8,1.1.5.2.5.3.2.8-2.6,3.7-5.3,7.5-7.9,11.3-.2.3-.4.5-.8.3-.9-.4-1.8-.8-2.7-1.2Z"/>
      <path class="cls-118" d="M194,274.4c-.4-.2-.7-.4-1.2-.7,1-.2,1.8-.4,2.6-.5.9,0,1.3-.4,1.8-1.2,1.4-2.7,2.9-5.3,4.4-8,.2-.3.3-.6.7-.8,0,.8,0,1.6,0,2.4,0,2.4,0,4.7,0,7.1,0,2.3-.7,4.5-.4,6.8,0,.5-.2.5-.6.3-.5-.2-.9-.3-1.4-.5-.4-.6,0-1,.3-1.5.6-1.1.5-1.4-.7-1.7-.4-.1-.8-.2-1.3-.2-1-.1-1.9-.6-2.9-.8-.1,0-.3,0-.4-.1-.3-.2-.7-.4-.9-.7Z"/>
      <path class="cls-118" d="M205.4,279.2c-.6.4-1.2.5-1.9.7,0,0,0-.1,0-.2-.2-5.2-.5-10.3-.3-15.5,0-.4,0-.7.2-1.2.3.5.5,1,.8,1.4,1.4,2.5,2.8,5,4.1,7.6.3.6.7.8,1.3.9,1,.1,1.9.3,3.1.6-.8.5-1.4.8-2,1.1-.2.4-.6.5-1,.6-1.3.5-2.6.8-3.9,1.1-.5.1-1.1.2-1.1.9.2.7.8,1.2.7,2Z"/>
      <path class="cls-184" d="M164.2,287.6c2.3.2,4.3,1.1,5.8,3,.7.9,1.1,1.9.6,3-.5,1.1-1.6,1.4-2.6,1.4-2.7,0-4.9-1.1-6.4-3.3-.6-.8-.9-1.8-.3-2.7.6-1.1,1.8-1.2,2.9-1.3Z"/>
      <path class="cls-184" d="M246.3,301c-3.2,4.6-5.9,9.5-8.9,14.2-.4.7-.7.8-1.5.5-1.9-.9-1.9-.8-.8-2.6,2.5-4,5.1-8.1,7.6-12.1.4-.6.7-.8,1.4-.5.7.3,1.5.4,2.2.6Z"/>
      <path class="cls-147" d="M155.8,236.4c0,0-.1.2-.2.2-.3-.5-.6-.6-1.2-.2-2.8,1.9-5.6,3.8-8.5,5.5-1.4.9-3.1,1.1-4.8.7-.3,0-.5-.2-.7-.3-.9-.7-.9-1.1.1-1.6,3.7-1.9,7.5-3.7,11.2-5.6.4-.2,1-.4.4-1.2,1.3.3,2.4.2,3.6,0-.5.9-.8,1.7,0,2.5Z"/>
      <path class="cls-184" d="M214.1,296.8c-1.6,2.1-3,4.3-3.9,6.8-.2.5-.5.7-1,.5-1.5-.7-3.1-1.3-4.6-2-.4-.2-.4-.3-.2-.6,1.4-2.1,2.8-4.2,4.2-6.3.2-.2.3-.4.6-.3,1.6.7,3.2,1.3,4.8,2Z"/>
      <path class="cls-118" d="M192.2,293.4c.4-2.6.8-5.2,1.3-7.8.2-.8,0-1.4-.6-2-2.3-2.5-4.6-5-7.1-7.8,1.6.5,3,.8,4.3,1.5,0,.7.7,1.1.6,1.8.3,1.1.9,2.1,1.7,2.9.5.5,1.2,0,1.7.1.8,0,.9.8,1.6,1.1.7.3,1.4.7,2,1.1.2.2.5.4.8.4.1,0,.3.1.3.2-2.2,2.9-4.4,5.9-6.6,8.8-.4,0-.3-.2-.2-.4Z"/>
      <path class="cls-184" d="M182.8,292.8c2.9-1.9,5.9-3.1,9.2-4-.4,2.4-.8,4.6-1.2,6.9,0,.4-.3.3-.5.2-2.4-1-4.9-2.1-7.5-3.2Z"/>
      <path class="cls-8" d="M205.8,285.8c2.3,3.1,4.6,6.2,6.9,9.3,0,0,0,.1-.1.2-1.6-.6-3.2-1.3-4.8-1.9-1.1-.4-2.2-.9-3.2-1.3-.6-.2-1.3-.2-1.1-1.3.1-.7,0-1.6,0-2.4,0-.2,0-.3.2-.4.3-.3.7-.1,1,0,.1,0,.3,0,.4,0,.6-.1.2-.6.3-1,.1-.4-.2-.9.4-1Z"/>
      <path class="cls-147" d="M158.7,283.5c-1,1.3-1.1,2.7-1.2,4.1,0,1.2,0,2.3-.3,3.5-.2,1-.5,1.2-1.5.8,0,0-.1,0-.2,0-.7-.3-1.6-.4-2.1-1-.5-.6.3-1.3.3-2.1,0-1.2,0-2.3,0-3.5,0-.7.2-1.3.6-1.8.6-.8,1.4-1,2.4-.6.6.2,1.2.5,1.8.7Z"/>
      <path class="cls-118" d="M199.5,286c0,.4,0,.5,0,.7,0,1.4,0,1.4,1.4,1.1.5,0,.7,0,.7.5,0,.8.2,1.5-.2,2.3,0,0,0,.2,0,.3,1,1.2-.3,1.1-.8,1.3-2.6,1.1-5.2,2.1-8,3,2.2-3,4.5-6,6.8-9.1Z"/>
      <path class="cls-96" d="M216.7,285.4c1.5,0,2.9,0,4.3.5.5.2,1.1.4,1.5.8.5.4.8.9.6,1.6-.2.7-.8.5-1.3.5-2.2,0-4.5.3-6.7.7-.6,0-1,0-1-.8,0-.9-.1-1.7-.2-2.6,0-.5.1-.7.6-.7.7,0,1.3,0,2,0Z"/>
      <path class="cls-147" d="M154.3,281.7c-1.6,1-1.8,2.6-1.8,4.2,0,1.1.1,2.1,0,3.2-.2,1-.4,1.1-1.3.7-.6-.3-1.5-.4-1.9-.9-.4-.5.3-1.2.3-1.8.2-1.8,0-3.6.2-5.4,0-.3,0-.6.2-.9.3-1,.5-1.1,1.5-.6.9.5,1.8.9,2.8,1.5Z"/>
      <path class="cls-150" d="M248.3,322.4c-.1.6-.5.5-.8.3-2.2-.9-4.4-1.9-6.5-2.8-8.7-3.7-17.3-7.4-26-11.1,0,0-.2,0-.3-.1-.3-.1-.8-.2-.6-.7.2-.6.6,0,.8,0,3.5,1.5,7.1,3,10.6,4.5,7.4,3.2,14.7,6.3,22.1,9.5.2.1.6,0,.7.4Z"/>
      <path class="cls-103" d="M209.7,283.3c-.8.5-1.8.7-2.4,1.5-.3.3-.7,0-.8.4-.2-.1-.2-.4-.2-.6.2-.1,0-.3,0-.4,0,.1,0,.3,0,.4-.1,0-.2.1-.4.2-.2-.3-.3-.3-.5,0,0,0-.1,0-.2,0-.4,0-.2-.6-.6-.6,0,0-.1,0-.2,0,0,0,0,0-.1,0,0-.1,0-.2,0-.3,0-.2,0-.4.3-.4.1,0,.2,0,.3-.2-.1,0-.1.2-.3.2-.2,0-.3-.2-.5,0,0,0-.1,0-.2,0-.3,0-.3-.2-.2-.4,0-.1-.1-.3-.2-.4,2.1-.5,3.1-1.8,3-3.9,0,0,0-.2.1-.3.2-.2.3-.2.5,0,.1.1.2.3.2.5,0,.2,0,.3,0,.5.2.1.5.2.8.3,0,0-.2-.1-.3-.2,0-.3.3-.3.4-.5-.3-.2-.7,0-.8-.4.2-.6.8-.3,1.2-.5,0,0,.2,0,.3-.1,0,0,.2,0,.3,0,.6,0,1.2,0,1.9,0-.6,0-1.1,0-1.7,0-.3,0-.6,0-.7-.4,0-.2,0-.4,0-.6,0-.1.2-.2.3-.3.3,0,.7,0,1-.2.3,0,.6,0,.9-.1.2,0,.4,0,.3-.4,0,0,0-.2,0-.3.2-.2.4-.2.7-.3.4-.1.9-.3,1.3-.2.1,0,.2.2.2.3-.1.3-.5.2-.6.3.7,0,1.4-.5,2.2,0,.2.2.5.4,0,.6-.7,0-1.4.2-2,.3.5.2,1-.3,1.4.2.1.1.3.2.4.3-.6.5-1.4.2-2.1.5.8,0,1.5,0,2.1-.5.1,0,.3-.1.4-.2,0,.6.2,1.3-.5,1.7,0,0-.1.3,0,.4.4.6,0,.9-.5,1.2-.5.4-1.1.2-1.6.2.2.1.4,0,.5.3,0,.3-.3.3-.5.4-.2,0-.6-.1-.7.3-.2.3-.4.6-.8.6-.4,0-.2-.4-.2-.6,0-.2-.1-.3-.3-.3-.3-.1-.6-.2-.9,0,0,0-.1.1-.2.2-.6.2,0,.6-.1.9,0,0-.1.1-.2.1,0,0-.1-.1-.2,0,0,.1,0,0,0,0,.3.1.6.2.7.5,0,.2-.1.2-.2.3-.3,0-.5-.1-.7-.2.2.2.5.3.9.3.1,0,.2.1.2.3Z"/>
      <path class="cls-150" d="M181.1,294.3c.4-.8.9-.5,1.4-.3,8,3.4,16,6.9,24,10.3.4.2.8.3,1.2.5.2,0,.5,0,.4.4-.1.2-.3.5-.7.3,0,0-.2,0-.3-.1-8.6-3.7-17.2-7.3-25.8-11,0,0-.2,0-.3-.1Z"/>
      <path class="cls-147" d="M144.8,277c1.8,0,3,1.1,4.4,1.9.3.2.2.3,0,.5-.8,1.3-.8,2.7-.8,4.1,0,1.3.1,2.7-.2,4,0,.4,0,.9-.7.8-.5,0-.7-.4-.8-1,0-2.6-.2-5.1-1-7.6-.3-.9-.7-1.7-1.1-2.6Z"/>
      <path class="cls-96" d="M140.8,291.7c1-2.9,2.7-3.7,5.2-2.7,2,.8,4,1.7,6.2,2.7h-11.5Z"/>
      <path class="cls-126" d="M170.8,289.4c-.8-.6-1.4-1.1-2-1.5-.3-.2-.4-.5-.5-.8-.4-2.2-.7-4.5-1.1-6.7,0-.2,0-.3,0-.5.7-1.4,1.5-2.9,2.2-4.4.4.5.3.9,0,1.3-.5,1-.9,1.9-1.4,2.9-.3.5,0,.7.3.9.5.3.6,0,.8-.4.2-.5.5-1,.8-1.5.8,1.5-.4,2.5-.8,3.7,0,.2-.4.5,0,.7.2.2.5.3.8.3.4,0,.3-.6.7-.7.1,1.1-.5,1.9-.8,2.9,0,.3-.4.7.2.8.8.1.8.7.8,1.3,0,.5,0,1,0,1.6Z"/>
      <path class="cls-126" d="M155.4,303.2c.6-1.2,1.1-2.4,1.8-3.5.2-.3.7-.3,1-.5,1.6-.8,3.3-1.6,4.9-2.5,1.4-.8,2.7-1,4.1-.4-.5.5-1,1.1-1.5,1.6-.3.4-.5,0-.7-.2-.6-.3-.8-.3-1.1.4-.5,1.2-1.1,2.5-2.7,2.8.1-.3.2-.7.4-1,.3-.5.2-.7-.3-1-.6-.3-.7,0-.8.5-.2.6-.5,1.1-.7,1.7-.3.8-.8,1.2-1.8,1.3.3-.5.6-1,.9-1.4.3-.4.4-.6,0-1-.6-.4-.7,0-1,.3-.5.8-1,1.5-1.5,2.3-.2.3-.3.6-.9.5Z"/>
      <path class="cls-147" d="M198.5,257.3c-.5,1.9-1.4,3.3-3.3,3.8-1.9.5-3.6.2-5.1-1.1-.6-.5,0-.6.3-.8,2.3-.9,4.6-1.3,7-1.7.3,0,.7-.1,1.1-.2Z"/>
      <path class="cls-126" d="M159.9,291.1c-.1.7-.5,1.3-.9,1.9-.2.4-.5,0-.7,0-.2,0-.6,0-.4-.4,1-2,.5-4.2.8-6.2,0-.3,0-.5.2-.8.4-1.4.8-1.6,2.2-1.2.2,0,.5.1.7.2.4.2,1.1,0,1.1.6,0,.5-.3,1.3-.9,1.5-2,.9-2.8,2.3-2.2,4.5Z"/>
      <path class="cls-150" d="M214.9,296c-.1-1.7-.2-3.2-.4-4.7,0-.5.3-.5.6-.6,2.1-.3,4.2-.5,6.4-.6-2.4,1.6-4.6,3.5-6.7,5.9Z"/>
      <path class="cls-163" d="M194.2,282.3c-1.6.4-2.7-.3-3.1-2,0-.5-1-.6-.5-1.2,0,0,.2,0,.3,0,.6,0,1.1,0,1.9.2-.7-.3-1.3,0-1.8-.3-.2-.1-.2-.3-.2-.5.3-.3.7-.2,1.1-.2.3,0,.7.2,1-.1,0-.1,0-.3,0-.4-.3-.5-.8-.3-1.2-.5-.3-.1-.8,0-.9-.4,0,0,0-.1,0-.2.4-.5.9,0,1.4-.1-.3-.1-.6,0-.8-.2-.1-.2,0-.4.1-.5.2-.2.5-.1.7,0,.2,0,.3.1.3-.2,0-.1.1-.2.3-.3.2,0,.4,0,.6,0,.3,0,.5.1.8.3.1.1.1.2,0,.3-.2.2-.4.2-.6.4,0,.1-.4.1,0,.3.2.2.4.3.5.5,0,.2,0,.3-.1.5.4.6,1.2,0,1.5.6-.2.4-.5.3-.8.4-.2,0-.4,0-.5.1,0,0,0,.1,0,.2,0,.1,0,.2,0,.3.5.1,1,.1,1.5,0,.1-.1.1-.2.1-.4,0-.1,0-.2,0-.4,0-.2.2-.3.4-.4,0,0,.2,0,.3,0,.4,0,.7,0,1.1,0,.4,0,0-.2,0-.3.2-.3.3-.7.8-.5.5.7.3,1.5.3,2.3,0,.2-.1.3-.3.4-.4.2-.8.3-1.3.3-.2,0-.3,0-.5,0-.7,0-1.3-.2-2-.2.5,0,1,0,1.4.2.1,0,.2.2.1.4-.6.3-1.3.2-1.9.4-.1,0-.3,0-.4,0-.4,0-.8,0-1.2,0-.1,0,0,0,0,0,0,0,0,0,.1,0,.2,0,.3.2.3.3,0,.1-.2.2-.4,0,.2.1.4,0,.6,0,.3,0,.5.3.8.3.2.1.2.2,0,.4Z"/>
      <path class="cls-95" d="M194.2,282.3c0-.2,0-.3-.2-.4-.3-.6,0-.8.5-.6.7.3,1.3.2,2-.1,0,0,0-.1.1-.2,0-.2,0-.3-.2-.3-.1,0-.2,0-.3-.2,0,0-.2-.1-.3-.2,0-.4.5-.1.7-.4h.4c.5.5.8.2,1.1-.2,0,0,.2-.2.3-.3.3,0,.3.3.4.5.3,1.4,1.2,2.2,2.6,2.4.1,0,.3,0,.4.2,0,.3-.5.2-.6.5-.2.1-.2.3-.4.4-.5,0-.3.4-.4.6,0,.2,0,.4-.4.3,0,0-.1-.1-.2-.2-.3,0-.4.3-.7.3-.2,0-.3-.1-.3-.3-.1.3.2.2.3.3,0,0,0,.2,0,.2,0,0-.2.2-.2.2-.1,0-.3,0-.4,0-.2-.1-.4-.2-.5-.4,0-.1,0,0,0,0,0,0,0-.2,0-.3-.1,0,0,.1,0,.2,0,.1-.2.2-.3.2-.9-.2-1.5-1-2.4-1.2-.3,0-.4-.3-.5-.6,0-.5-.4-.5-.7-.4Z"/>
      <path class="cls-62" d="M201.8,282.5c-1.5.2-2.7-.7-3.1-2.2,0-.3-.1-.6-.2-.9,0-.8.2-1.6-.3-2.3-.8-.6-1.7-.8-2.4-1.5,0-.2.1-.3.3-.3.6,0,1.2.4,1.8.5.7.1,1.3.2,1.9.4.9.3,1,.7.6,1.4-.3.5-.6,1.1-.9,1.7,0,1.3.3,2,1.5,2.6.3.1.8,0,.8.6Z"/>
      <path class="cls-166" d="M206.7,278.4c0,.7,0,1.4-.2,2.1-.5,1.4-1.5,2.2-3,2.2,0-.5.4-.5.7-.6,1.4-.6,1.8-1.5,1.4-3-.4-.6-.8-1.1-1.1-1.8,0-.7.4-.8.9-.9,1-.2,2.1-.5,3.1-.7.2,0,.3.1.3.3,0,.1-.1.3-.2.3-1.1.4-1.6,1.3-2,2.2Z"/>
      <path class="cls-85" d="M158.1,297.7c.9-1.8,1.7-3.4,2.6-5.1.8,1,1.7,1.8,2.8,2.4-.3.2-.6.3-.8.4-.3.2-.6.5-.8-.2-.2-.6-.9-.5-1.3,0q-1.1,1.8-2.6,2.3Z"/>
      <path class="cls-177" d="M163.9,286.4c.8-1.5,1.5-2.9,2.2-4.4.3,1-.1,1.6-.3,2.2-.2.5-.2.8.4,1,.8.2.6.9.7,1.5,0,.4-.3.3-.5.2-.8-.2-1.6-.4-2.5-.4Z"/>
      <path class="cls-128" d="M206.7,278.4c0-1.5,1-2,2.1-2.5.2-.4.7-.5,1-.7.3,0,.6-.5,1-.2,0,0,.2,0,.3,0,.3.2.5,0,.8-.2.6-.3,1.2-.7,1.9-.7.1,0,.2.2.3.3-.6.8-1.5.7-2.3,1-.3.1-.6.1-.8.3,0,0,0,.1,0,.2-.4.6-1.2.3-1.7.6-.2,0-.4,0-.5.2,0,0-.1.1-.2.2-.2.2-.5,0-.7,0,.2.2.6,0,.7.3.2.1.4.2.6.4,0,.2,0,.2-.1.2,0,0-.1,0-.2,0-.3,0-.6,0-1,0,.3.1.6,0,.9.2-.3.6-1,0-1.4.4-.1.1-.3.2-.4,0,0-.2-.2-.2-.4-.2Z"/>
      <path class="cls-107" d="M189.8,275.5c-.2.2-.4.4-.8.3-.9-.4-1.8-.6-2.7-1.1,1.2-.2,2.3-.4,3.5-.6.7.7.7.8,0,1.4Z"/>
      <path class="cls-107" d="M215.3,274.3c.2-.5.6-.2,1-.2.7.1,1.5.3,2.4.5-1,.6-2,.9-3,1.1-.4,0-.3-.4-.5-.5-.6-.4,0-.7.1-1Z"/>
      <path class="cls-33" d="M172,289.5c1.1.5,2,.9,2.9,1.3.2,0,.5,0,.4.4-.1.2-.3.5-.6.4-.9-.3-1.7-.7-2.5-1.1-.3-.2,0-.5-.1-.9Z"/>
      <path class="cls-84" d="M202.9,285.6c0,0-.1,0-.2,0-.3-.3-.2-.8-.2-1.1,0-2.7-.1-5.4,0-8.2,0-.5,0-.9.3-1.3.2,0,.3,0,.4.2,0,2.3,0,4.5,0,6.8,0,0,0,.2,0,.3.1.9.2,1.7,0,2.6,0,0,0,.1,0,.2-.1.2,0,.5-.2.6Z"/>
      <path class="cls-14" d="M202.7,274.9c0,3.5,0,7.1,0,10.6,0,0-.1,0-.2,0-.2-.2-.2-.4-.2-.7,0,0,0-.1,0-.2.2-.3-.3-.5,0-.8v-2c0-2.3,0-4.5,0-6.8,0-.2.2-.2.4-.2Z"/>
      <path class="cls-173" d="M203,281.9c-.3-.3-.2-.8-.2-1.1,0-1.6,0-3.2,0-4.8,0-.3-.2-.7.2-.9.2,2.3.2,4.5,0,6.8Z"/>
      <path class="cls-176" d="M202.3,275.2c.3.3.2.6.2.9,0,1.7,0,3.3,0,5,0,.3.1.7-.2.9-.4-1.3-.1-2.6-.2-3.9,0-1-.2-2,.2-2.9Z"/>
      <path class="cls-143" d="M210.9,274.9c-.3.1-.7.3-1,.4-.4.2-.8.3-1.2.4-1.1.2-2.1.4-3.2.7-.5.1-.9.3-.7.9,0,0-.2.1-.3,0-.2-.8.1-1.1.9-1.3,1.8-.3,3.6-.8,5.4-1.5,0,.1.1.2.2.4Z"/>
      <path class="cls-32" d="M190.4,273.8c.5-.8.6-.8,1.3-.4.6.4,1.3.9,1.9,1.3.2.1.3.2.1.5-1.2-.2-2.4-.6-3.3-1.4Z"/>
      <path class="cls-79" d="M213.9,274.2c-.7.3-1.3.5-2,.8-.2,0-.3,0-.2-.2.5-.4,1.1-.7,1.6-1.2.6-.6,1.1-.6,1.6.2,0,.1,0,.3-.2.3-.2.2-.5.2-.8.1Z"/>
      <path class="cls-175" d="M190.4,273.8c1.1.4,2.3.9,3.4,1.3,0,0,0,0,0,.1,0,0,0,.2-.1.2,0,0-.2,0-.3,0-.2,0-.4-.1-.7-.1-.7-.1-1.3-.5-2-.7.2.1.3.2.4.3,0,.2,0,.3-.1.3-.3.2-.7.2-.9.5-.1,0-.2-.1-.4-.2.5-.5.2-.9,0-1.4.2-.1.4-.2.6-.4Z"/>
      <path class="cls-34" d="M199.5,279.4c0-.6.4-1.1.7-1.6.5-.8.3-1.2-.6-1.4-.6-.1-1.2-.1-1.7-.4,0-.2.3,0,.4-.2.6.1,1.2.2,1.7.3.9.2,1.1.7.6,1.6-.3.5-.7,1-.8,1.7-.1,0-.2,0-.3,0Z"/>
      <path class="cls-11" d="M190.8,277c.7.1,1.3.3,2,.3.4,0,.5.2.4.6-.9.5-2.2.4-2.8-.4,0-.2.2-.5.4-.6Z"/>
      <path class="cls-55" d="M266.2,331.4c0,0,.1,0,.2,0-.6.6-1.3.9-2.1,1.3-.4-1.2.2-1.5,1.2-1.5.2.1.5,0,.7.2Z"/>
      <path class="cls-122" d="M214.3,276.8c-.7,0-1.4.3-2.2.1.4-.7,1.9-1,2.8-.6-.2.2-.4.4-.6.4Z"/>
      <path class="cls-56" d="M190.4,277.5c.9.5,1.9.4,2.8.4,0,.2,0,.3,0,.5-.4.3-.8,0-1.2,0-.4,0-.8-.2-1.1,0,0,.2,0,.4.2.5.1.2,0,.2-.1.2,0,0-.1,0-.2,0,0-.3,0-.6-.3-.8-.4-.3-.4-.6-.1-1,0,0,.1.1.2.2Z"/>
      <path class="cls-18" d="M190.2,275.7c0-.5.3-.6.8-.6.6,0,1.2,0,1.7.5.2.1.5,0,.5.3,0,.3-.3.1-.5.1-.4,0-.7,0-1.1-.1-.4.2-.9.2-1.2-.2,0,0-.1,0-.2,0Z"/>
      <path class="cls-100" d="M214.9,275.8c-1,0-1.9.4-2.9.1.4-.1.8-.3,1.3-.4.9-.7,1.2-.7,1.8,0,0,0-.1.1-.2.2Z"/>
      <path class="cls-167" d="M193.3,328.7c-.8.2-1.7-.2-2.4.2-1.4,0-2.7.1-4.1-.1,1.1-.2,2.2.2,3.2-.2,1.1,0,2.2,0,3.3.1Z"/>
      <path class="cls-52" d="M191.4,276.3c.5.2,1.5-.2,1.5.5,0,.4-1,0-1.5,0-.2,0-.4,0-.6,0-.2-.1-.4-.3-.6-.4.3-.4.3-.4,1.2,0Z"/>
      <path class="cls-131" d="M204.7,288c-.3,0-.7-.1-1-.2,0-.4.4-.3.6-.6.4-.8-.5-.3-.6-.6,0-.3,0-.5,0-.8,0,0,.1,0,.2,0,0,.4.2.2.4.2.3.2.9,0,1,.5.1.6,0,1.1-.6,1.4Z"/>
      <path class="cls-59" d="M205.4,280.3c-.2.7-.6.9-1,1.2-.3.2-.6.1-.8-.2-.2-.4.2-.4.4-.5.4-.2.9-.3,1.4-.5Z"/>
      <path class="cls-129" d="M199.9,280.5c.7,0,1.2.3,1.7.5.3,0,.2.3.1.5-.1.2-.2.3-.5.2-.5-.2-1-.5-1.3-1.1Z"/>
      <path class="cls-78" d="M201.4,286c.4.2,0,.4,0,.6-.2.2-.8,0-.8.6,0,0,0,.1,0,.2,0,.1-.1.1-.2.2,0,.2-.3.2-.4.2-.1-.5,0-1,0-1.5,0-.3.1-.5.5-.3h0c.3.2.6.1,1,0Z"/>
      <path class="cls-121" d="M205.8,285.8c-.4.6-.1,1.3-.2,1.9,0,.6-.3.6-.7.3.3-.7,0-1.5.2-2.2.2,0,.4-.4.6,0Z"/>
      <path class="cls-137" d="M215.1,275.6c-.6-.7-1.2-.1-1.8,0,0,0-.2-.1-.2-.2.1-.5.6-.4.9-.6.3-.1.6-.2.6-.6,0,0,0-.2.1-.2,0,0,.1-.1.2-.2.1.2.2.4.4.6,0,.3-.4.6-.1,1,0,0,0,.2,0,.3Z"/>
      <path class="cls-106" d="M203.2,289.6c-.2.5-.7.4-1,.5-.2,0-.3-.1-.3-.3.1-.6.7-.4,1-.6.2,0,.3.1.3.4Z"/>
      <path class="cls-141" d="M202.9,288.3c.2,0,.4,0,.3.2-.1.6-.6.5-1,.6-.2,0-.3,0-.3-.3,0-.6.6-.5,1-.6Z"/>
      <path class="cls-44" d="M203.7,286.6c.2,0,.3,0,.5-.1.3,0,.6-.3.7.2,0,.5-.2.5-.6.5-.3,0-.6-.2-.6-.6Z"/>
      <path class="cls-74" d="M205.3,285.8c0,.7.3,1.5-.2,2.2-.1,0-.2,0-.3,0,0-.3.3-.3.3-.5.2-.7.2-1.3-.7-1.5.3,0,.6-.1,1-.2Z"/>
      <path class="cls-89" d="M200.7,287.2c-.3-.1-.3-.5-.2-.7.3-.4.7,0,1,0,.1.7-.5.5-.8.6Z"/>
      <path class="cls-72" d="M193.8,275.1c0-.1-.1-.2-.2-.4.1-.1.3-.3.4-.4.3.1.7.1.9.6,0,0,0,0,0,.1-.3.3-.6.6-1,0h0Z"/>
      <path class="cls-158" d="M204.5,277.3c0,0,.2,0,.3,0,.3.5.8,1,.9,1.6,0,0-.1.2-.2.2-.3-.6-.6-1.2-1-1.9Z"/>
      <path class="cls-53" d="M200.3,284c-.2-.3-.1-.6.2-.8.3-.2.3.2.4.2.1.1.1.3,0,.4-.3.1-.2.4-.2.6h0s0,0,0,0h0c-.2,0,0-.3-.3-.4Z"/>
      <path class="cls-82" d="M203.1,284.8c0-.9,0-1.7,0-2.6.3.9.3,1.7,0,2.6Z"/>
      <path class="cls-28" d="M199.3,284.8v-.2s0,0,0-.1c.2,0,0-1.1.7-.3-.1.3.1,1-.6.6Z"/>
      <path class="cls-124" d="M191.4,276.3c-.4.2-.8-.6-1.2,0-.4-.3,0-.4.2-.5.4,0,.8.1,1.2.2,0,.1-.1.2-.2.3Z"/>
      <path class="cls-91" d="M200.5,286c-.6,0-.4.4-.4.7,0,.4,0,.7,0,1.1-.4-.5-.2-1.1-.1-1.7,0-.5.4-.3.6-.1Z"/>
      <path class="cls-104" d="M194.9,327.2c0,.1.1.2.2.3-.4,0-.8,0-1.2,0-.1-.1-.1-.2,0-.3.3,0,.7,0,1,0Z"/>
      <path class="cls-31" d="M205.4,284.8c0-.3-.3-.6.2-.9.2.3.3.6.3.9-.2,0-.3.3-.5,0Z"/>
      <path class="cls-63" d="M182.2,323.4l.2-.2c.3.3.7.6,1,.9-.5,0-.9-.3-1.2-.6Z"/>
      <path class="cls-6" d="M204.6,284.2c.2-.4.3-.2.4,0,0,.2.1.4.2.6-.7.3-.4-.4-.6-.6Z"/>
      <path class="cls-148" d="M193.9,327.2c0,.1,0,.2,0,.3-.3,0-.7,0-1.1,0,.4-.3.7-.4,1.1-.3Z"/>
      <path class="cls-36" d="M201.6,283c.3.3.3.5,0,.8-.4-.3,0-.6,0-.8Z"/>
      <path class="cls-42" d="M200.7,284.4c.8,0,.3.4.4.7-.4-.2-.3-.5-.3-.7,0,0,0,0,0,0Z"/>
      <path class="cls-119" d="M203.5,284.2c.4.3.4.6.2.9-.4-.2-.3-.5-.2-.9Z"/>
      <path class="cls-21" d="M204.3,284.2s0,0,.1,0c0,.3.2.6-.1.8-.4-.3-.1-.5,0-.8Z"/>
      <path class="cls-183" d="M203.2,290.3c-.3.4-.5.2-.9.3.3-.3.5-.5.9-.3Z"/>
      <path class="cls-47" d="M200.9,285.4c.3.3.6,0,1.1,0-.5.5-.9.4-1.3.2,0-.1.1-.2.2-.2Z"/>
      <path class="cls-40" d="M204.2,285.6c.3-.4.6-.5,1.1,0-.3,0-.5,0-.8.1-.1,0-.2,0-.3,0Z"/>
      <path class="cls-90" d="M203.7,283c0,.1.1.3.2.4,0,.2,0,.3,0,.5,0,0-.2,0-.2-.1,0-.3-.2-.6.1-.8Z"/>
      <path class="cls-67" d="M204.5,283.5c0,.1-.1.2-.2.4-.3,0-.2-.4-.2-.5,0-.1,0-.4.1-.4.2,0,.2.3.3.4,0,0,0,0,0,.1Z"/>
      <path class="cls-111" d="M204.2,285.6c.1,0,.2,0,.3,0-.2,0-.4.1-.7.2,0,0-.1,0-.2,0-.1-.2-.4-.4.1-.4.1,0,.3,0,.4.1Z"/>
      <path class="cls-170" d="M211.7,274.7c0,0,.1.1.2.2-.3.1-.5.3-.8.3-.3,0,0-.2,0-.3.2,0,.4-.2.5-.2Z"/>
      <path class="cls-173" d="M201.5,285c-.2-.3-.2-.5,0-.7,0,0,.2,0,.2,0,0,.3.1.5-.2.6Z"/>
      <path class="cls-139" d="M202.2,284.9c.3.1.2.4.2.7-.7,0-.4-.4-.2-.7Z"/>
      <path class="cls-41" d="M200.3,284c.3,0,.2.3.3.4,0,.2,0,.5-.3.5-.2,0,0-.3-.1-.5,0-.1.1-.3.2-.4Z"/>
      <path class="cls-81" d="M200.9,283.8c0-.1,0-.3,0-.4,0-.2,0-.4.4-.3-.2.2,0,.6-.4.7Z"/>
      <path class="cls-151" d="M192.2,293.4c0,.1,0,.4.2.4,0,.2-.2.5-.3.4-.3-.3,0-.6,0-.8Z"/>
      <path class="cls-30" d="M200.9,285.4c0,0-.2.1-.2.2-.2,0-.3,0-.5,0,0,0,0-.2,0-.2.2-.2.4,0,.6.1Z"/>
      <path class="cls-130" d="M202,290.9c.3-.2.6-.1.9,0-.3.2-.6.2-.9,0Z"/>
      <path class="cls-113" d="M266.2,331.4c-.2,0-.5,0-.7-.2.2,0,.4-.1.6-.2,0,.1,0,.2,0,.3Z"/>
      <path class="cls-183" d="M201.4,286c-.3.3-.7.2-1,0,.3,0,.6,0,1,0Z"/>
      <path class="cls-73" d="M203,291.3c-.4.2-.6.2-.8,0,.3-.2.5-.2.8,0Z"/>
      <path class="cls-24" d="M187.2,326.9c0,0,0,.1,0,.2-.3,0-.5-.3-.6-.5.3,0,.5,0,.6.3Z"/>
      <path class="cls-120" d="M202.9,285.6c0-.2-.1-.5.2-.6,0,.2.4.6-.2.6Z"/>
      <path class="cls-43" d="M202.3,284c0,.3.4.5,0,.8-.1-.3-.3-.5,0-.8Z"/>
      <path class="cls-171" d="M184.2,324.7c0,0,0,.1,0,.2-.1,0-.2,0-.3-.2,0,0,0-.2,0-.2.1,0,.2.1.3.2Z"/>
      <path class="cls-135" d="M200.5,287.6c0,0,.1-.1.2-.2.2,0,.4,0,.6,0,0,0,0,.1,0,.2h-.8Z"/>
      <path class="cls-98" d="M63.4,151.8c-.9,0-1.9,0-2.8,0-.5,0-.7-.1-.7-.7,0-1.5,0-3,0-4.5,0-.6.1-.8.7-.8,1.9,0,3.9,0,5.8.1,1.8,0,2.9,1.2,2.9,2.8,0,1.7-.8,2.7-2.7,2.9-1.1.1-2.1,0-3.2,0,0,0,0,0,0,0Z"/>
      <path class="cls-96" d="M63.3,137.1c.9,0,1.8,0,2.7,0,1.5,0,2.4.9,2.5,2.2.1,1.5-.6,2.5-2.2,2.7-2,.3-4,0-6,.1-.4,0-.4-.2-.4-.5,0-1.3,0-2.7,0-4,0-.5.2-.6.6-.6.9,0,1.9,0,2.8,0h0Z"/>
      <path class="cls-98" d="M156.3,145.8c.8,0,1.8,0,2.7.1,1.8.1,2.9,1.2,2.9,2.8,0,1.7-.8,2.8-2.7,2.9-2.1.1-4.1,0-6.2.1-.4,0-.5-.2-.5-.5,0-1.6,0-3.2,0-4.8,0-.5.3-.6.7-.6,1,0,1.9,0,3.1,0Z"/>
      <path class="cls-98" d="M156,137.1c1,0,1.9,0,2.9,0,1.3.1,2.1.9,2.2,2.1.1,1.4-.5,2.4-1.9,2.7-2.1.4-4.3.1-6.4.2-.4,0-.4-.3-.4-.6,0-1.3,0-2.6,0-3.9,0-.5.2-.6.7-.6.9,0,1.9,0,2.8,0,0,0,0,0,0,0Z"/>
      <path class="cls-96" d="M125.1,137.2c.9,0,1.8,0,2.7,0,1.8,0,2.7,1,2.8,2.6,0,1.7-.8,2.6-2.6,2.8-1.9.2-3.9,0-5.8.1-.5,0-.6-.2-.6-.6,0-1.4,0-2.9,0-4.3,0-.5.2-.7.7-.7.9,0,1.9,0,2.8,0h0Z"/>
      <path class="cls-20" d="M190.6,146.7h-6c1-2.7,1.9-5.3,3-8.2,1.1,2.8,2,5.4,3,8.2Z"/>
      <path class="cls-98" d="M309.4,138.6c1.1,2.8,2,5.4,3,8.2-1.9,0-3.7,0-5.6,0-.5,0-.4-.2-.3-.5.9-2.5,1.8-4.9,2.8-7.7Z"/>
      <path class="cls-20" d="M92,146.7c1-2.7,1.9-5.3,3-8.2,1.1,2.8,2,5.5,3,8.2h-6Z"/>
      <path class="cls-147" d="M101.6,26.2c-2.6,1.8-5.4,3.3-8.4,4.5-.7.3-1.4.6-2.1.9-2.7,1.2-4.1,3.3-4.1,6.3,0,2.2,0,4.4-.6,6.6-1.5,4.9-5.2,6.4-9.1,6.9-.2,0-.4,0-.5-.2-.3-.8.1-1.7,1-2,0,0,0,0,0,0,6.7-2.1,7.4-7.3,4-12.3-.3-.5-.7-.9-.9-1.4-1-1.8-.5-3,1.5-3.5,1.3-.3,2.7-.5,4-.8,5.2-1,10.1-2.7,14.9-5,.2,0,.3,0,.2.2Z"/>
      <path class="cls-147" d="M46.8,25.8c5.8,2.9,12,4.7,18.4,5.7,3.1.5,3.7,2,1.9,4.6-1.1,1.6-1.9,3.2-2.3,5.1-.4,2.4.4,4.4,2.3,6,1.2,1,2.7,1.6,4.2,2,.5.2.9,1.6.5,2-.2.2-.4,0-.6,0-6.1-.6-9.6-4.4-9.7-10.6,0-1.1,0-2.2,0-3.3,0-2.8-1.5-4.6-4-5.8-1.2-.6-2.5-1-3.7-1.5-2.6-1.1-5-2.5-7.2-4.1,0-.2,0-.3.2-.2Z"/>
      <path class="cls-126" d="M74.3,27.1c0,.4,0,.7,0,1,0,10.4,0,20.9,0,31.3,0,1-.5,1.4-1.5,1.1-.3,0-.3-.2-.3-.4,0-.3,0-.5,0-.8,0-9.7,0-19.4,0-29.1,0-1.5.6-2.2,1.8-3Z"/>
      <path class="cls-169" d="M74.8,27.1c1.1.6,1.5,1.4,1.5,2.6,0,9.9,0,19.8,0,29.7,0,.4.3,1-.5,1-.7,0-1-.2-1-.9,0-8.1,0-16.2,0-24.3v-8.1Z"/>
      <path class="cls-147" d="M51.2,29.7c-5.2-1.7-10.2-3.7-15.3-6.1,1.1-.8,2.1-1.5,3.1-2.2.5-.4.7.1,1,.3,3.5,2.8,7.1,5.5,11.1,7.6,0,0,.2,0,.3.1,0,.2,0,.3-.2.2Z"/>
      <path class="cls-147" d="M97.6,29.3c3.9-2.1,7.5-4.8,11-7.6.5-.4.8-.4,1.3,0,.8.7,1.7,1.2,2.7,2-4.9,2.2-9.8,4.3-14.8,5.9-.2,0-.3,0-.2-.2Z"/>
      <path class="cls-147" d="M112,36.2c-2.8.3-5.6.5-8.4.8-.4,0-.6,0-.7-.5-.6-1.8-.6-1.8,1.3-2.1,2.1-.3,4.2-.6,6.4-.9.4,0,.6,0,.8.4.2.7.4,1.5.6,2.2Z"/>
      <path class="cls-116" d="M44.9,37c-2.6-.2-5.2-.5-7.8-.7-.5,0-.6-.2-.4-.7,0,0,0,0,0,0,.5-2,.5-2,2.6-1.7,2,.3,4,.6,6.1.8.6,0,.7.3.5.8-.1.3-.2.7-.3,1.1,0,.4-.3.6-.7.5Z"/>
      <path class="cls-126" d="M96.6,30.5c5.4-1.8,10.7-3.9,15.9-6.3-.2,2.3-.5,2.6-2.6,3.3-4,1.2-8.1,2.3-12.2,3.1-.3,0-.6,0-.9.1-.2,0-.3,0-.2-.2Z"/>
      <path class="cls-126" d="M51.6,30.7c-3.6-.5-7.2-1.5-10.7-2.5-.8-.2-1.7-.5-2.5-.7-1.8-.6-2.2-1.1-2.4-3.2,5.2,2.4,10.5,4.4,15.8,6.3,0,.2,0,.3-.2.2Z"/>
      <path class="cls-126" d="M45.7,34.2c-2.7-.4-5.4-.8-8.1-1.1-.5,0-.6-.5-.8-.8-.4-.5-.8-1.1-1.3-1.8,2.1.3,4,.6,5.9.9.5,0,1.1.3,1.6.2,1.7,0,2.4.9,2.7,2.6Z"/>
      <path class="cls-126" d="M102.8,34.1c.5-2.1.5-2.2,2.6-2.5,2.5-.4,4.9-.8,7.7-1.2-1.1,1.2-1.4,2.7-3.2,2.9-2,.1-4,.5-6,.8-.3,0-.6,0-1,0Z"/>
      <path class="cls-126" d="M35.6,29.9c0-.2,0-.2,0-.2,1.6-2,1.6-2,4-1.3,2.1.6,4.2,1.2,6.4,1.8-.4.8-.8,1.4-1.9,1.2-2.8-.5-5.7-.9-8.6-1.4Z"/>
      <path class="cls-126" d="M102.4,30.2c2.7-.8,5.4-1.5,8.1-2.3.4-.1.7,0,1,.3.4.6.9,1.1,1.5,1.7-1.4.2-2.7.4-4,.6-1.5.2-3,.4-4.5.8-1.1.2-1.7,0-2.1-1.1Z"/>
      <path class="cls-126" d="M54.7,37.7c-2.8-.2-5.5-.4-8.2-.5-.6,0-.6-.2-.5-.8.6-1.9,0-1.7,2.2-1.5,1.4.1,2.8.3,4.2.3,1,0,1.7.4,1.9,1.4,0,.3.2.6.3,1Z"/>
      <path class="cls-116" d="M93.8,37.7c0-.2,0-.2,0-.3.7-2,.7-2,2.8-2.1,1.4,0,2.8-.2,4.2-.4.8-.1,1.2.1,1.3.9.3,1.4.3,1.4-1.1,1.4-2.4.1-4.9.3-7.3.4Z"/>
      <path class="cls-126" d="M46.7,42.3c2.4,0,4.8,0,7.1,0,.5,0,1.1,0,1.6,0,.5,0,.8.2.9.7,0,.5-.2.7-.7.8-2.1.2-4.1.3-6.2.6-.8.1-1.4-.1-1.8-.9-.2-.4-.6-.8-.9-1.2Z"/>
      <path class="cls-126" d="M101.9,42.1c-.6.7-1,1.3-1.4,1.9-.3.4-.6.4-1,.3-2.2-.2-4.4-.4-6.6-.6-.4,0-.8,0-.8-.6,0-.6.3-.8.9-.9,2,0,4-.1,6-.1.9,0,1.8,0,2.9,0Z"/>
      <path class="cls-126" d="M106.5,41.5c-1.1,0-2.1,0-3.2,0-.6,0-1.3-.9-1.2-1.5,0-.2.2-.2.4-.2,2.3-.2,4.7-.4,7-.5.9,0,.7,1,.9,1.5.2.6-.5.3-.8.4-1,0-2.1,0-3.1,0,0,0,0,.2,0,.2Z"/>
      <path class="cls-126" d="M42.1,41.3c-1.1,0-2.2,0-3.3,0-.5,0-.8,0-.6-.7.2-1,.6-1.3,1.7-1.2,1.9.2,3.8.3,5.7.4.3,0,.9-.2.8.4-.1.5,0,1.4-1,1.3-1.1,0-2.2,0-3.3,0,0,0,0-.2,0-.2Z"/>
      <path class="cls-126" d="M46.3,39.3c-2.4-.2-4.7-.3-7.1-.5-1.1,0-1.4-1.2-2.4-1.9,1.5-.2,2.8.2,4,.2,1.1,0,2.1.3,3.2.3,1.4,0,1.8.8,2.3,1.9Z"/>
      <path class="cls-126" d="M111.5,36.8c-1,1.5-2.2,2.2-3.9,2.2-1.8,0-3.6.2-5.4.3.4-1.2,1-1.9,2.4-1.9,2.3,0,4.5-.4,6.9-.6Z"/>
      <path class="cls-126" d="M92.7,31.9c2.6-.3,5-.8,7.5-1.3,1.8-.4,1.8-.4,2.7,1.3-2,.2-4,.5-5.9.7-.9.1-1.7.1-2.6.3-.9.2-1.4-.1-1.6-1.1Z"/>
      <path class="cls-126" d="M71.4,65.5c-1.9.7-3.8,1-5.7,1.5,0-2.1,0-4.1,0-6.2,0-.4.1-.5.5-.4,1.5.3,3.1.6,4.6.9.4,0,.5.3.4.6,0,.4-.4.3-.6.2-1-.2-2-.3-3.1-.5-.6-.1-.9,0-.8.7,0,.9,0,1.9,0,2.8,0,.7.3.8.8.7.9-.2,1.8-.3,2.8-.5.3,0,.6-.2,1.1.2Z"/>
      <path class="cls-126" d="M55.8,31.9c-.3,1-.8,1.2-1.7,1-2.5-.4-5-.6-7.5-.9-.3,0-.7.1-.8-.2-.1-.3.2-.4.3-.7.4-.8,1-.9,1.8-.7,2.6.7,5.2,1.1,7.9,1.5Z"/>
      <path class="cls-126" d="M99.7,47.4c-.7.5-1.2.9-1.7,1.3-.2.2-.4.2-.6.1-2.2-.5-4.3-1-6.6-1.5.8-.9,1.5-1.6,2.8-1.2,2,.5,4,.8,6.2,1.3Z"/>
      <path class="cls-126" d="M57.9,47.3c-2.4.6-4.6,1.1-6.8,1.6-.6.1-.8-.5-1.3-.7-.3-.2-.6-.4-1-.8,2.5-.5,4.8-1,7.1-1.4.8-.1,1.2.8,2,1.3Z"/>
      <path class="cls-126" d="M93.5,41.6c.2-.5,1.2-.6,1-1.5,0-.2.3-.1.5-.1,1.9,0,3.9,0,5.8,0,.5,0,1.2,1,1.1,1.5-.1.3-.3.2-.5.2-2.6,0-5.2,0-7.8,0Z"/>
      <path class="cls-61" d="M45.9,32.5c3,.3,5.9.7,8.9,1-.4.9-.8,1.5-1.9,1.3-1.6-.2-3.3-.4-4.9-.4-1.2,0-2-.5-2.1-1.9Z"/>
      <path class="cls-126" d="M55,41.6c-2.6,0-5.1,0-7.6,0-.2,0-.8.2-.7-.3.1-.5,0-1.3.8-1.3,2.1,0,4.1,0,6.2,0,.1,0,.3,0,.3.1,0,.8.8,1,1,1.5Z"/>
      <path class="cls-126" d="M102.7,32.5c-.2,1.3-.8,1.9-2.1,1.9-1.8,0-3.7.3-5.5.4-.4,0-.7,0-.9-.4-.1-.3-.6-.5-.4-.9.1-.3.5-.1.8-.2,2.6-.3,5.3-.6,8-1Z"/>
      <path class="cls-126" d="M82.8,63.7c0,.9,0,1.8,0,2.7,0,.4,0,.6-.6.5-1.4-.4-2.8-.7-4.3-1.1-.2,0-.5,0-.4-.4,0-.3.3-.1.5,0,1.1.2,2.1.3,3.2.5.4,0,.5,0,.5-.4,0-1.1,0-2.2,0-3.3,0-.6-.2-.6-.7-.5-.9.2-1.9.3-2.9.5-.2,0-.6.3-.7-.3,0-.5.2-.6.6-.6,1.4-.3,2.7-.5,4.1-.8.5-.1.6,0,.6.5,0,.9,0,1.9,0,2.8Z"/>
      <path class="cls-126" d="M93.3,44.3c2.2.2,4.3.4,6.4.6,1.1.1.7,1.1.7,1.7,0,.7-.6.2-.9.2-2.1-.4-4.1-.8-6.2-1.2-.5,0-1-.2-.9-.9,0-.8.7,0,.9-.4Z"/>
      <path class="cls-126" d="M55.2,44.3c.3.2.9-.4,1,.3.1.7-.4.8-1,.9-2.1.4-4.2.8-6.4,1.3-.7.1-.7,0-.7-.6,0-.9.3-1.3,1.3-1.4,1.9,0,3.8-.3,5.7-.5Z"/>
      <path class="cls-126" d="M54.5,35.5c2,.1,3.9.2,5.8.3,1,0,.6.9.7,1.4.2.6-.4.4-.7.4-1.2,0-2.5,0-3.7,0-.9,0-1.4-.2-1.6-1.1,0-.4-.2-.7-.4-1.1Z"/>
      <path class="cls-126" d="M94.1,35.5c-.3.6-.5,1.2-.7,1.7-.1.4-.4.5-.8.5-1.4,0-2.9,0-4.3,0-.3,0-.8.1-.7-.5.1-.5-.2-1.3.7-1.4,1.9-.1,3.7-.2,5.8-.3Z"/>
      <path class="cls-126" d="M87.9,35.3c.7-1.7,1.8-2.6,3.3-3.2.5-.2.8,0,1.1.4.4.8.9,1.5,1.4,2.3-.8.4-1.8.2-2.6.3-1,.1-2,.1-3.2.2Z"/>
      <path class="cls-126" d="M60.6,35.3c-1.9,0-3.6-.2-5.3-.3-.6,0-.6-.2-.3-.7.4-.5.7-1,1-1.6.4-.7.8-.8,1.5-.5,1.4.6,2.4,1.5,3.1,3.1Z"/>
      <path class="cls-85" d="M90.5,47.8c.4,0,.8.2,1.3.3,1.7.4,3.3.8,5,1.1.5.1.6.2.5.8-.4,1.9-.4,1.9-2.2,1-1.5-.8-3.1-1.7-4.6-2.5-.2-.1-.4-.2-.3-.5,0-.2.2-.2.3-.2Z"/>
      <path class="cls-61" d="M58.3,48.1c0,.2-.2.3-.4.4-1.9,1-3.8,2.1-5.7,3.1-.5.3-.6.1-.7-.3-.5-1.9-.5-1.9,1.4-2.3,1.6-.4,3.2-.7,4.8-1.1.2,0,.5-.2.6.2Z"/>
      <path class="cls-116" d="M57.6,40.1c-.5,0-1.1,0-1.6,0-.4,0-1.1.5-1.2-.2-.1-.9.6-1.6,1.4-1.6,1.4,0,2.8,0,4.2,0,.5,0,.8.1.7.7,0,.4.4,1.1-.6,1.2-1,0-1.9,0-2.9.1,0,0,0,0,0,0Z"/>
      <path class="cls-126" d="M90.8,40.1c-.9,0-1.8-.1-2.7-.1-.9,0-.5-.7-.6-1.1,0-.5,0-.7.6-.7,1.5,0,3,0,4.5,0,.5,0,1.3,1.2,1.1,1.7-.1.3-.4.2-.6.2-.8,0-1.6,0-2.4,0,0,0,0,0,0,0Z"/>
      <path class="cls-126" d="M102.4,37.7c-.4,1.3-1.1,1.8-2.4,1.7-1.7-.1-3.4,0-5.1,0-.7,0-.9-.3-1-.8,0-.6.5-.4.8-.4,2.5-.2,5.1-.3,7.7-.5Z"/>
      <path class="cls-126" d="M46,37.7c2.9.2,5.5.3,8.1.5.2,0,.6,0,.5.4,0,.3,0,.8-.6.8-2.2,0-4.4,0-6.5,0-.9,0-.9-1-1.5-1.6Z"/>
      <path class="cls-85" d="M71.9,70.2c0-.8.2-1.4,1.2-1.6.8-.1,1.6-.4,2.4-.6.6-.2.8,0,.9.6.2.8-.3,1.7-1.1,2-.7.2-1.4.4-2.1.6-1.1.3-1.3.1-1.3-.9Z"/>
      <path class="cls-85" d="M40.4,45.6c2.4-.2,4.5-.4,6.7-.5.2,0,.7-.3.7.2,0,.5.2,1.2-.5,1.3-1.6.2-3.2.5-4.9.4-.7,0-1.3-.8-2-1.5Z"/>
      <path class="cls-85" d="M108.1,45.6c-1.1,1.1-1.9,1.8-3.4,1.4-1-.3-2.1-.2-3.1-.3-.9,0-.8-.6-.8-1.2,0-.8.5-.4.8-.4,2.1.1,4.2.3,6.5.5Z"/>
      <path class="cls-126" d="M76.3,72c0,.8-.3,1.3-1.1,1.5-.8.2-1.5.4-2.3.7-.8.3-.9,0-.9-.7,0-1.2.2-1.5,1.4-1.9.6-.2,1.1-.3,1.7-.5,1-.3,1.2-.1,1.2.9Z"/>
      <path class="cls-126" d="M67.3,63.7q0-1.5,1.4-1.3c.5,0,1,.2,1.6.2.8,0,1,.4,1,1.2,0,.7-.3.9-.8.9-.7.1-1.5.2-2.2.4-.9.3-1.2,0-1-.9,0-.2,0-.4,0-.6Z"/>
      <path class="cls-126" d="M100.9,44.5c.3-.7.6-1,1.4-1,1.8,0,3.6,0,5.4,0,.9,0,.9.4,1,1.1,0,.9-.6.6-.9.5-2.2-.2-4.5-.4-6.8-.6Z"/>
      <path class="cls-126" d="M47.6,44.5c-2.4.2-4.8.4-7.1.6-.3,0-.8.2-.6-.4.1-.4-.4-1.2.6-1.2,2,0,4.1,0,6.1,0,.6,0,.8.4,1.1,1Z"/>
      <path class="cls-61" d="M56.7,44.7c0-.1,0-.2,0-.2q.2-1.8,2-2.1c.5,0,.9-.1,1.4-.3.9-.3,1.2,0,1.3.9,0,.4,0,.6-.4.7-1.2.4-2.5.8-3.7,1.2-.4.1-.7.1-.6-.3Z"/>
      <path class="cls-126" d="M91.8,44.4c.2.6,0,.8-.8.6-1.1-.4-2.1-.8-3.2-1-.9-.2-.6-.7-.5-1.3,0-.7.5-.6.9-.5.7.1,1.3.2,2,.4,1.6.2,1.6.2,1.6,1.9Z"/>
      <path class="cls-126" d="M81.2,63.8q0,1.6-1.5,1.3c-.4,0-.8-.2-1.3-.2-.7,0-.9-.4-.9-1.1,0-.8.2-1.1,1-1.2.4,0,.7-.1,1.1-.2q1.6-.3,1.6,1.3Z"/>
      <path class="cls-85" d="M96.1,52.2c-1.6.9-2.9.5-4.1-.7-.5-.5-1-.8-1.6-1.2-.5-.3-.5-.8-.3-1.1.3-.5.6,0,.8.1,1.7.9,3.4,1.8,5.1,2.8,0,0,0,0,.1.1Z"/>
      <path class="cls-61" d="M92.1,55c-1.1-1.3-2.1-2.4-3.1-3.6-.2-.2-.6-.4-.3-.7.2-.2.7-.5,1.1-.2,1.1.8,2.2,1.6,3.3,2.4.3.2.2.4,0,.7-.3.4-.6.9-1,1.4Z"/>
      <path class="cls-85" d="M58.4,48.9c0,.6.4,1.1-.2,1.4-1.8,1.1-3.1,3.5-5.9,1.9,2-1.1,3.9-2.2,6-3.3Z"/>
      <path class="cls-61" d="M60.1,50.8c-1.1,1.3-2.2,2.5-3.3,3.8-.2.2-.3.3-.6,0-1.1-1.2-1.1-1.4.2-2.3.7-.5,1.4-1,2-1.5.6-.5,1.1-.5,1.7,0Z"/>
      <path class="cls-123" d="M93.5,40.5c-1,1.5-2,2-3.5,1.5-.7-.2-1.4-.3-2.2-.4-.4,0-.5-.2-.4-.6,0-.4.2-.5.6-.5,1.8,0,3.5,0,5.5,0Z"/>
      <path class="cls-177" d="M55.2,40.5c1.7,0,3.4,0,5.1,0,.3,0,.7-.2.8.5,0,.5-.3.6-.6.7-1.1.2-2.2.4-3.3.6-1,.1-1.2-1-2-1.3,0-.1,0-.3.1-.4Z"/>
      <path class="cls-51" d="M91.7,45.8c-.5.4-1,.8-1.4,1.1-.3.3-.5.1-.8,0-.8-.4-1.6-.9-2.4-1.2-.5-.2-.5-.5-.3-.9.2-.5.5-.5.8-.3,1.3.4,2.6.9,4.1,1.3Z"/>
      <path class="cls-123" d="M46.4,42.9c-2.1,0-4.2,0-6.2,0-.7,0-1.1-.6-1.8-1.2,2.5.1,4.8.2,7.1.3.5,0,.7.3.9.9Z"/>
      <path class="cls-85" d="M110,41.8c-.7.9-1.4,1.3-2.4,1.2-1.8,0-3.6,0-5.5,0,.2-.6.5-.9,1.1-.9,2.2,0,4.4-.2,6.8-.3Z"/>
      <path class="cls-123" d="M87.7,57.3c-.6-1.4-1.1-2.6-1.6-3.9-.1-.3,0-.4.3-.4.3,0,.4-.6.7-.1.6.8,1.3,1.5,1.9,2.3.2.2,0,.4,0,.6-.4.5-.8,1-1.3,1.6Z"/>
      <path class="cls-123" d="M62.6,53.2c-.1.3-.2.5-.3.8-.2.6-.5,1.2-.7,1.8-.2.5-.3,1.4-.7,1.3-.6-.2-1-.9-1.4-1.5-.2-.2,2.2-3,2.3-2.9.2.4.7.2.8.5Z"/>
      <path class="cls-85" d="M56.8,45.8c1.5-.5,2.9-.9,4.3-1.4.4-.1.6,0,.6.4,0,.3.3.6-.1.8-.9.5-1.8.9-2.7,1.4-.3.2-.5,0-.7-.2-.4-.3-.8-.6-1.3-1.1Z"/>
      <path class="cls-177" d="M91.4,55c-1.1.2-1.9.2-2.6-.8-.4-.6-.9-1.2-1.4-1.7-.5-.5-.3-1,0-1.4.5-.5.7.2.9.4,1,1.1,2,2.2,3,3.4Z"/>
      <path class="cls-51" d="M57,55.1c1.3-1.4,2.4-2.7,3.4-3.9.2-.2.4-.2.6,0,.2.3.6.6.2,1.1-.7.9-1.4,1.8-2.2,2.6-.5.5-1.2.2-2,.3Z"/>
      <path class="cls-85" d="M83,58.5c-.2-1.1-.4-2-.6-3-.2-.9.8-1,1.2-1.8.4,1.2.8,2.2,1.2,3.1.1.3,0,.5-.3.7-.4.3-.9.6-1.4.9Z"/>
      <path class="cls-85" d="M61.4,57.5c.6-1.3,1.1-2.6,1.6-3.9.3-.6.7-.5,1.2-.4.5.1.3.5.1.8-.2.6-.5,1.2-.6,1.8-.2,1.2-.9,1.7-2.3,1.7Z"/>
      <path class="cls-85" d="M64.9,54c1.8.7,1.2,2.1.9,3.3,0,.3.3,1.1-.5.9-1-.2-1.5-1-1.3-1.7.3-.9.6-1.7.9-2.6Z"/>
      <path class="cls-85" d="M87.1,57.5c-1.3,0-2-.5-2.3-1.7-.1-.6-.4-1.1-.6-1.7-.1-.3-.4-.7.2-.9.4-.1.9-.2,1.1.4.5,1.3,1.1,2.6,1.6,4Z"/>
      <path class="cls-160" d="M98.5,49.1c.6-.7,1.1-.9,1.9-.7,1.5.3,3,.5,4.6.7-.6.6-1.1,1-1.9.8-1.5-.4-3-.6-4.6-.9Z"/>
      <path class="cls-177" d="M43.5,49.2c1.8-.3,3.4-.5,5.1-.8.7-.1,1,.3,1.5.7-1.9.3-3.6.7-5.3.9-.4,0-.8-.4-1.2-.9Z"/>
      <path class="cls-51" d="M59.6,49.9c1.1-.9,2.1-1.8,3.2-2.7.8.6.9,1.1,0,1.7-.3.2-.5.5-.7.7q-1,1.1-2.5.3Z"/>
      <path class="cls-169" d="M66.1,58.4c.2-1.1.4-2.1.6-3.2.1-.8.8-.7,1.2-.7.6,0,.3.6.2,1,0,.4-.2.8-.2,1.2,0,1.2-.7,1.6-1.8,1.7Z"/>
      <path class="cls-85" d="M89,49.9q-1.5.8-2.5-.2c-.3-.4-.7-.8-1.1-1.1-.6-.5-.2-.8,0-1.2.4-.5.6,0,.8.2.9.7,1.8,1.5,2.7,2.3Z"/>
      <path class="cls-51" d="M59.1,49.6q-.4-1.9,1.2-2.7c.4-.2.8-.5,1.2-.6.2,0,.5-.5.7,0,.3.4,0,.6-.2.8-1,.8-1.9,1.6-3,2.6Z"/>
      <path class="cls-177" d="M100.1,47.9c.4-.5.8-.8,1.4-.7,1.2.2,2.5.3,3.7.4.3,0,.7,0,.6.5,0,.4-.2.7-.8.6-1.6-.3-3.2-.5-5-.8Z"/>
      <path class="cls-51" d="M89.5,49.6c-1.2-1-2.2-1.9-3.3-2.8-.3-.2,0-.4,0-.6.1-.3.4-.2.6,0,.8.4,1.6.9,2.5,1.3.4.2.4.5.3.9,0,.4,0,.8-.2,1.4Z"/>
      <path class="cls-160" d="M48.4,47.9c-1.7.3-3.4.5-5,.8-.4,0-.6,0-.7-.5,0-.4,0-.6.5-.7,1.3-.1,2.7-.2,4-.4.5,0,.8.3,1.2.7Z"/>
      <path class="cls-51" d="M82.4,58.4c-1.1,0-1.7-.5-1.8-1.5,0-.5-.2-1-.3-1.5,0-.3-.3-.8.2-.8.4,0,1,0,1.2.5.3,1.1.4,2.2.7,3.3Z"/>
      <path class="cls-12" d="M76.9,66.2c-1.6.4-3.2,0-4.7.2-.2,0-.4-.1-.4-.3,0-1.7-.3-3.3.2-5,1.3.2,2.7,0,4,0,.3,0,.7-.2.8.3-.9.6-1.8.3-2.7.3-1.8,0-1.7,0-1.6,1.6,0,0,0,.1,0,.2q0,2.3,2.2,2.3c.6,0,1.3,0,1.9,0,.2,0,.3.2.4.4Z"/>
      <path class="cls-61" d="M70.3,58.9c0-.8,0-1.7,0-2.5,0-.8.9-.7,1.4-1,.1,0,.2.1.2.2.5,1.4-.1,2.7-1.6,3.3Z"/>
      <path class="cls-115" d="M78.3,58.9c-1.8-.8-1.5-.2-1.5-3.4,1.5.3,1.6.4,1.5,3.4Z"/>
      <path class="cls-85" d="M70.4,55.3c0-1,.2-2,.2-3,0-.4.2-.6.6-.5.4,0,.7,0,.7.6,0,.3,0,.7,0,1q0,1.5-1.6,1.9Z"/>
      <path class="cls-160" d="M69.8,55.5c-.6-.6-1.3-.8-1.3-1.4,0-.8.2-1.6.4-2.3,0-.4.4-.1.7-.1.4,0,.5.2.5.6,0,1-.2,2.1-.3,3.4Z"/>
      <path class="cls-99" d="M74,75.7c.7,0,1.4,0,2.1,0,.3,0,.6,0,.6.3,0,.4-.3.4-.6.4-1.4,0-2.9,0-4.3,0-.3,0-.6,0-.6-.4,0-.4.4-.3.6-.3.7,0,1.4,0,2.1,0Z"/>
      <path class="cls-85" d="M78.8,55.3c-.3-1.1-.2-2.2-.3-3.2,0-.6.4-.5.7-.6.5-.2.5.2.5.5,0,.3,0,.6.2.9.5,1.2-.1,1.8-1,2.5Z"/>
      <path class="cls-65" d="M68.4,51.7c-.1.5-.3,1-.3,1.4,0,.8-.5,1-1.2,1.1-.4,0-.5,0-.4-.5.2-.8.5-1.6.7-2.4,0-.4.2-.5.6-.4.3.1.8.1.6.6Z"/>
      <path class="cls-169" d="M82.2,54.4c-.6-.2-1.3,0-1.5-.5-.3-.7-.4-1.6-.5-2.4,0-.4.4-.4.7-.5.4-.2.5.1.5.4.3.9.5,1.8.9,3Z"/>
      <path class="cls-168" d="M78.2,55.4c-.6-.4-1.3-.4-1.4-.9-.1-.8,0-1.7,0-2.6,0-.3.4-.2.7-.2.3,0,.4.1.4.4,0,1,.2,2,.3,3.2Z"/>
      <path class="cls-160" d="M62.3,52.2c-.8-.9-.7-1.6.1-2.2.4-.3.7-.8,1.1-1.2.2-.2.4-.4.7,0,.2.2.4.4.1.8-.7.9-1.3,1.8-2,2.7Z"/>
      <path class="cls-51" d="M86.2,52.2c-.7-.9-1.3-1.8-1.9-2.6-.2-.3-.2-.5,0-.8.3-.4.5,0,.7.1.4.4.7.8,1.1,1.1.9.7.8,1.3,0,2.1Z"/>
      <path class="cls-65" d="M82.6,54c-.3-1-.6-1.9-.9-2.8-.1-.4,0-.6.3-.8.4-.2.5.2.6.4.2.3.3.5.4.8q.7,1.3-.6,2.4Z"/>
      <path class="cls-169" d="M66.2,50.4c.3.2.7.2.5.7-.3.8-.5,1.6-.7,2.5-.1.5-.3.4-.6.1-.6-.5-.9-1-.3-1.7.3-.4.5-.8.7-1.2,0-.2.2-.4.4-.4Z"/>
      <path class="cls-65" d="M72.1,67.6c0-.5,0-.7.5-.7,1,0,2.1,0,3.1,0,.1,0,.4,0,.4.2,0,.2,0,.3-.3.4-1.1.3-2.1.6-3.2.8-.7.2-.4-.5-.6-.7Z"/>
      <path class="cls-160" d="M72.1,76.9h3.9c-.2.9-.7,1.3-1.5,1.4-1,.2-1.8-.3-2.5-1.4Z"/>
      <path class="cls-168" d="M79.7,55.4c.9,2.2.8,2.6-.8,3.5-.5-1.8-.3-2.7.8-3.5Z"/>
      <path class="cls-77" d="M72.3,74.9c1.2-.4,2.3-.8,3.5-1,.5-.1.4.5.6.9,0,.3,0,.5-.3.5-1.2,0-2.5,0-3.7,0,0-.1,0-.2,0-.3Z"/>
      <path class="cls-50" d="M69.8,59.1c-.6-.5-1.4-.6-1.4-1.2,0-.8.2-1.6.4-2.4,0-.3.2-.1.4,0,.4.3.8.6.7,1.2,0,.7,0,1.4,0,2.4Z"/>
      <path class="cls-160" d="M85.8,52.6c-.6,0-1.2.3-1.6-.2-.5-.7-.9-1.5-1.2-2.3,0-.2.3-.4.4-.5.3-.1.3.1.5.3.5.6.9,1.3,1.4,1.9.1.2.3.4.5.7Z"/>
      <path class="cls-160" d="M62.7,52.5c.7-1,1.4-1.9,2-2.8.2-.3.4-.2.6,0,.2.1.3.3.2.6-.4.7-.7,1.4-1.1,2-.4.5-.9.2-1.6.2Z"/>
      <path class="cls-147" d="M76.9,66.2c0,0-.1-.1-.2-.2-.5-1.5-.5-3.1,0-4.6-.3-.4-.8-.2-1.2-.2-1.2-.1-2.4.2-3.6-.2,1.5,0,3,0,4.5,0,.4,0,.6.1.6.6,0,1.6,0,3.1,0,4.7Z"/>
      <path class="cls-93" d="M46.8,25.8c0,0-.1.1-.2.2-.3-.2-.7-.4-1.2-.8.7,0,1.1.3,1.4.6Z"/>
      <path class="cls-134" d="M101.6,26.2c0,0-.2-.1-.2-.2.3-.2.7-.4,1-.6.1,0,.2,0,.3,0-.4.3-.7.5-1.1.8Z"/>
      <path class="cls-86" d="M97.6,29.3c0,0,.1.1.2.2-.3.2-.7.3-1.1.2.3-.1.6-.3.9-.4Z"/>
      <path class="cls-48" d="M51.2,29.7c0,0,.1-.1.2-.2.3,0,.7.2,1,.6-.5,0-.8-.1-1.1-.4Z"/>
      <path class="cls-13" d="M52.6,30.7c.3,0,.6.1.9.2-.4.2-.6.2-.9,0,0,0,0,0,0-.1,0,0,0,0,0,0Z"/>
      <path class="cls-45" d="M52.6,30.7c0,0,0,.1,0,.2-.3,0-.7,0-1-.2,0,0,.1-.1.2-.2.3,0,.5.1.8.2Z"/>
      <path class="cls-172" d="M96.6,30.5c0,0,.2.1.2.2-.2.2-.6.2-.8.2-.2,0-.2,0-.2-.2.3,0,.5-.1.8-.2Z"/>
      <path class="cls-75" d="M95.8,30.7c0,0,.1.1.2.2-.3.2-.6.3-1,0,.3,0,.6-.2.8-.2Z"/>
      <path class="cls-153" d="M102.7,25.5c-.1,0-.2,0-.3,0,.2-.1.4-.3.7-.4,0,.4-.1.4-.4.4Z"/>
      <path class="cls-118" d="M220.6,52.6c0,3.1,0,6.2,0,9.2,0,2.1,1.3,3.4,3.4,3.4,2.3,0,4.6,0,6.9,0,2.5,0,3.9-1.4,3.9-3.9,0-.7,0-1.5,0-2.2,0-.4.1-.6.6-.6,3.2,0,6.4,0,9.6,0,.5,0,.6.2.5.6-.1,2.1-.9,4.1-1.3,6.2,0,.3-.4.5-.7.7-2.1,1.8-4.6,2.6-7.2,3.3-6.9,1.7-13.8,1.1-20.7-.3-1.9-.4-3.5-1.4-4.8-2.8-1.1-1.2-1.2-2.8-1.5-4.3-.3-1.7-.4-3.4-.4-5.1,0-4.7,0-9.4.1-14.1,0-2.3,1.2-3.7,2.9-4.9,2.7-1.8,5.8-2.5,8.9-3,5.8-1,11.5-.5,17.2,1,1.9.5,3.6,1.4,5.1,2.6.4.3.8.6.9,1.1.8,2.2,1.3,4.5,1.5,6.8,0,.6-.1.9-.8.9-3.1,0-6.2,0-9.3,0-.6,0-.8-.2-.8-.8,0-1,0-2,0-3,0-2.1-1-3.3-3.1-3.3-2.8,0-5.6,0-8.3,0-1.7,0-2.8,1.2-2.8,3,0,3.1,0,6.3,0,9.4Z"/>
      <path class="cls-118" d="M136,52.3c0-5.4,0-10.8,0-16.2,0-.8.2-1,1-1,7.8,0,15.5,0,23.3,0,.8,0,1,.3,1,1,0,1.2,0,2.4,0,3.6,0,.7-.2.8-.8.8-4.1,0-8.2,0-12.3,0-.8,0-1,.2-1,1,0,2.3,0,4.7,0,7,0,.8.2.9,1,.9,3.8,0,7.6,0,11.4,0,.7,0,.9.2.9.9,0,1.1,0,2.1,0,3.2,0,.8-.3.9-1,.9-3.8,0-7.6,0-11.3,0-.8,0-1,.2-1,1,0,2.7,0,5.4,0,8,0,.7.2.9.9.9,4.5,0,8.9,0,13.4,0,.8,0,1.1.1,1,1,0,1.2,0,2.4,0,3.6,0,.5-.1.8-.7.8-8.3,0-16.7,0-25,0-.8,0-.7-.4-.7-.9,0-5.4,0-10.8,0-16.3Z"/>
      <path class="cls-118" d="M294.3,52.3c0-5.4,0-10.8,0-16.2,0-.8.2-1,1-1,7.8,0,15.6,0,23.4-.2,1.2,0,2.3,0,3.5.3,5.7,1.3,7.6,6.6,7.2,10.7-.2,1.7-.6,3.3-1.6,4.8-.9,1.3-2.1,2.2-3.6,2.5-.8.1-.8.5-.6,1.1,1.6,4.7,3.1,9.5,4.7,14.3.2.7.3,1-.7,1.1-3.4,0-6.8.1-10.1.2-.7,0-.9-.2-1-.8-.9-4.7-1.9-9.4-2.8-14.1-.1-.6-.3-.8-1-.8-1.8,0-3.6,0-5.4,0-.8,0-.9.2-.9,1,0,4.6,0,9.2,0,13.9,0,.8-.1,1-1,1-3.3-.1-6.7-.2-10-.2-.8,0-1-.2-1-1,0-5.4,0-10.8,0-16.3Z"/>
      <path class="cls-118" d="M252.5,55.3c0-4.5,0-9,0-13.5,0-3.2,3.5-6.9,6.8-6.9,7.2,0,14.3,0,21.5,0,1,0,2,.3,2.8.9,2.4,1.8,3.9,4.3,3.9,7.3,0,8.5,0,17.1,0,25.6,0,.9-.3,1.1-1.1,1.1-3.2,0-6.4,0-9.6,0-.9,0-1.2-.1-1.2-1.1,0-1.6,0-3.3,0-4.9,0-.6-.1-.8-.8-.8-2.9,0-5.8,0-8.6,0-.7,0-.8.2-.8.9,0,1.7,0,3.4,0,5.1,0,.6-.1.9-.8.9-3.8,0-7.6,0-11.3,0-.7,0-.8-.2-.8-.8,0-4.6,0-9.2,0-13.8,0,0,0,0,0,0Z"/>
      <path class="cls-118" d="M180.4,35.2c4.7,0,9.4,0,14.1.5,2.1.3,4.2.8,5.9,2.2,1.1.9,1.8,2,1.9,3.4.3,2.7.3,5.4,0,8.1-.2,1.9-1.2,3.2-2.9,3.9-2.5,1-5.1,1.3-7.7,1.4-3.2.1-6.5.2-9.7.2-.8,0-1,.2-1,1,0,4.3,0,8.5,0,12.8,0,.7-.1,1-1,1-3.3,0-6.7-.1-10-.1-.7,0-1-.1-1-.9,0-10.8,0-21.7,0-32.5,0-.8.2-.9,1-.9,3.4,0,6.8,0,10.2,0Z"/>
      <path class="cls-16" d="M197.7,243.6c-.7.8-2,.9-2.6,1.7-.7.8-1,1.8-1.9,2.4-1.5,1-3.9,1-5.4,0-.6-.4-.7-.7-.2-1.3,1.3-1.3,2.7-2.1,4.5-2.4.6-.1,1.3-.2,1.9-.2,1.2,0,2.4,0,3.7,0Z"/>
      <path class="cls-138" d="M200.4,218.7c-.8.3-.8-.4-.8-.7-.1-.5.4-.5.8-.5,1-.2,1.8.2,2.2,1.2.3.8.7,1.5.7,2.4,0,.3,0,.6-.3.6-.4,0-.8-.2-1.1-.4-.3-.3,0-.3.2-.5.3-.5-.8-2-1.5-2Z"/>
      <path class="cls-29" d="M200.2,250.6c-.1,0-.5,0-.8-.1-.4,0-.5-.2-.4-.6.1-.3,0-.8.6-.7,1.2.3,2-.2,2.4-1.3,0-.2.4-.6.7-.5.3.2.6.6.5,1-.3,1.4-1.3,2.2-2.9,2.1Z"/>
      <path class="cls-35" d="M195.4,220.4c.2-1.3.8-2.4,1.5-3.4.2-.3.5-.3.7,0,.2.2.6.3.3.8-.7.9-1.2,1.9-1.3,3.1,0,.6-.6.3-.9.3-.5,0-.3-.4-.3-.7Z"/>
      <path class="cls-138" d="M184.4,231.5c0,.4-.3.4-.5.6-.2.1-.4.3-.6,0-.7-.8-1.6-.9-2.5-.5-.6.2-.6-.3-.8-.6-.2-.4.1-.5.4-.6,1.3-.5,2.8-.2,3.7.7.1.1.3.3.4.4Z"/>
      <path class="cls-37" d="M186.1,232c.2-.8.5-1.5.6-2.2.1-.5.4-.4.7-.3.4.1.6.2.5.7-.2.7-.4,1.4-.6,2.1-.1.5-.5.3-.8.2-.3,0-.6-.1-.5-.5Z"/>
      <path class="cls-16" d="M229.1,352.6c.7,2.3,1.2,4.6,1.7,6.8.2.6.2.9-.5,1.1-.8.3-.8-.3-.9-.7-.6-2.6-1.2-5.2-1.9-7.8-.2-.6,0-.9.6-1.1,1.7-.3,1.3-.7,2.1.9.9,1.7,1.8,3.3,2.5,5,0,.2,0,.5.4.4.3,0,.1-.3.1-.5-.2-2,0-4.1,0-6.1,0-.8.2-1,1-1.2,1.4-.3,1.4-.3,1.7,1,.6,2.5,1.2,4.9,1.8,7.4.2.7,0,.8-.6,1-.7.2-.7-.1-.8-.6-.5-2.1-1-4.2-1.5-6.3,0-.2,0-.4-.5-.6,0,2.4,0,4.7,0,7.1,0,.4.1.9-.6,1.1-.8.2-.8-.4-1-.7-1-1.7-1.9-3.4-2.9-5.2-.2-.3-.2-.6-.7-.9Z"/>
      <path class="cls-16" d="M265.9,340.5c.9,1.8,1.8,3.6,2.7,5.4.3.6,0,.8-.4,1-.5.3-.7.2-1-.3-1.2-2.5-2.5-4.9-3.7-7.3-.3-.5-.2-.8.3-1.1,1.4-.7,1.4-.8,2.4.4,1.2,1.4,2.5,2.6,3.5,4.1,0,.1.2.3.4.2.2-.1.1-.3,0-.5-.7-1.9-.9-4-1.5-5.9-.2-.7,0-1.1.6-1.5,1.3-.6,1.2-.7,1.9.6,1.1,2.3,2.3,4.5,3.5,6.8.3.6,0,.8-.4,1-.5.3-.7.1-1-.3-1-2.1-2.1-4.2-3.3-6.2.3,1.6.6,3.2,1,4.8.2.8.3,1.6.5,2.4,0,.4,0,.7-.4.9-.4.2-.6,0-.8-.2-1.4-1.5-2.8-3-4.2-4.5-.1,0-.2-.2-.3,0,0,0,0,.2,0,.4Z"/>
      <path class="cls-16" d="M169.6,351.1c-1.1,2-2.3,4-3.4,6-.2.4-.3.8-.9.6-.6-.2-.5-.6-.5-1,0-2.4,0-4.7-.2-7.1-.6,2.3-1.2,4.5-1.8,6.8-.1.4,0,.9-.8.7-.5-.2-.9-.3-.7-1,.7-2.7,1.4-5.4,2.1-8,.1-.5.3-.7.9-.5,1.5.4,1.5.4,1.5,1.9,0,1.9.1,3.7-.1,5.6,0,.2-.1.4.2.5.3,0,.3-.2.3-.4.8-1.9,1.9-3.6,2.8-5.4.6-1.3,1.5-.3,2.2-.2.8.1.3.7.2,1.1-.6,2.6-1.3,5.1-1.9,7.7-.1.5-.3.8-.9.6-.6-.2-.7-.4-.5-1,.6-2.2,1.2-4.5,1.7-6.8,0,0-.1,0-.2,0Z"/>
      <path class="cls-16" d="M138.8,339.8c-.9,1.9-1.8,3.7-2.7,5.6-.2.4-.3.9-.9.4-.4-.3-.8-.4-.5-1.1,1.3-2.4,2.5-4.9,3.7-7.4.2-.4.4-.5.9-.3,1,.5,1.4,1.1,1.3,2.2-.2,1.9-.3,3.7-.4,5.6,0,.2-.4.6.2.6.7-1.9,1.8-3.7,2.7-5.6.2-.5.5-.5.9-.2.4.2.8.3.4.9-1.3,2.4-2.4,4.8-3.7,7.2-.1.3-.1,1-.7.7-.5-.3-1.5-.3-1.4-1.3.1-1.6.2-3.1.3-4.7,0-.9.1-1.7.2-2.6,0,0,0-.2,0-.3-.1,0-.1.2-.2.3Z"/>
      <path class="cls-16" d="M153.6,345.8c-.5,2.3-1.5,4.5-2.2,6.7-.1.4-.2.8-.9.5-.5-.2-.8-.4-.5-1.1.9-2.6,1.8-5.2,2.7-7.8.2-.6.4-.6,1-.5,1,.3,1.4.8,1.4,1.9,0,2.2.3,4.4.4,6.7.6-2.1,1.4-4.1,2-6.1.2-.8.6-.8,1.3-.5.4.2.4.3.3.7-1,2.7-1.9,5.5-2.9,8.2-.1.4-.3.4-.7.3-1-.2-1.5-.7-1.5-1.9,0-2.4-.4-4.8-.4-7.2Z"/>
      <path class="cls-16" d="M223.8,357.4c0,2.6-1.2,4.1-3.6,4.5-2.6.5-2.5.5-2.9-2.1-.3-2.2-.6-4.3-.9-6.4,0-.6,0-.8.6-.8.4,0,.9-.1,1.3-.2,3.1-.5,5.1,1,5.4,4.2,0,.3,0,.7,0,.9Z"/>
      <path class="cls-16" d="M150.8,345.3c-.2,1.8-.8,3.5-2.2,5-.9,1-2.1,1.3-3.4.8-1.4-.5-2.3-1.4-2.4-2.9-.1-2.2.6-4.1,2-5.7,1-1.2,2.3-1.4,3.7-.8,1.5.6,2.3,1.9,2.2,3.7Z"/>
      <path class="cls-16" d="M264.9,346.6c0,1.6-1.1,2.9-2.8,3.3-1.5.4-2.5,0-3.2-1.5-.9-1.9-1.7-3.9-2.7-5.8-.4-.9.4-.8.8-1,.4-.3.7-.2.9.3.8,1.8,1.6,3.7,2.4,5.5.5,1,1.1,1.3,1.9.9,1-.4,1.2-1.1.8-2.2-.7-1.8-1.5-3.5-2.3-5.2-.4-.8,0-1.5,1-1.6.3,0,.3.2.4.3.9,2.1,1.8,4.2,2.7,6.2.1.3.1.6.2.8Z"/>
      <path class="cls-16" d="M245.2,354.2c0,1.6-1.2,2.8-3,3.2-1.5.3-2.7-.3-3.2-1.7-.7-2.1-1.3-4.3-2-6.4-.3-.9.6-.6,1-.9.5-.3.6,0,.7.4.6,1.9,1.1,3.8,1.7,5.8.4,1.3,1.1,1.6,2.1,1.1.8-.4,1-1,.8-1.8-.5-2-1.1-3.9-1.7-5.9-.3-.9.3-.8.8-1.1.7-.3.8,0,.9.6.5,1.8,1.1,3.6,1.6,5.5.1.4.2.9.3,1.2Z"/>
      <path class="cls-16" d="M175.1,360.3c-2.3,0-3.7-1.5-3.4-3.8.3-2,.8-4.1,1.2-6.1,0-.5.3-.7.8-.5.4.2,1.2-.2,1,.8-.5,2-.8,4-1.2,6-.2,1.1.2,1.7,1.1,1.9,1,.2,1.6-.1,1.8-1.3.4-1.9.8-3.8,1.2-5.7.1-.5,0-1,.9-.7.6.2,1.1.2.8,1.1-.5,2-.8,4.1-1.3,6.1-.4,1.5-1.3,2.2-2.8,2.2Z"/>
      <path class="cls-16" d="M206.3,353c.3,0,.6,0,.9,0,1.1.2,1.6,1,1.3,2-.2.6-.5.4-.8,0-.5-.6-1.1-.8-1.9-.7-.6.1-1,.5-1.1,1,0,.6.2.9.7,1.1.7.3,1.4.5,2,.8,1.5.6,2.1,1.7,1.9,3.1-.2,1.2-1.2,2.1-2.6,2.4-.9.2-1.8,0-2.7-.2-.8-.2-1.3-.7-1.1-1.6,0-.2-.2-.6.2-.7.3,0,.6,0,.8.3.6.7,1.3.8,2.2.7.7,0,1.3-.3,1.4-1.1.1-.7-.4-1-.9-1.3-.6-.3-1.2-.5-1.8-.7-1.6-.6-2.1-1.6-1.9-3.1.2-1.2,1.3-2.2,2.8-2.3.2,0,.4,0,.6,0,0,0,0,0,0,0Z"/>
      <path class="cls-16" d="M214.2,352.7c.6-.2.7.2.8.8.1.7-.3.7-.8.8-.7,0-1.4.2-2.1.2-.6,0-.6.3-.6.7.2,1.6.1,1.6,1.8,1.5.3,0,.5,0,.8,0,.6-.2.7,0,.8.6.1.6-.2.7-.7.8-.6,0-1.3.2-1.9.2-.4,0-.5.2-.5.7.2,2.3.2,2.3,2.5,2.1.3,0,.5,0,.8,0,.6-.1.7.1.7.6,0,.4.2.8-.5.9-1.4,0-2.7.2-4.1.5-.8.1-.8-.3-.8-.8-.2-2.2-.5-4.5-.7-6.7-.2-2.3-.2-2.3,2.1-2.5.7,0,1.4-.1,2.2-.2Z"/>
      <path class="cls-16" d="M191.6,362.5c1.1-3.1,2.1-6.1,3.1-9.1.3-.8.9-.3,1.3-.4.4,0,.8,0,.9.5.6,3,1.2,5.9,1.9,8.9,0,.4,0,.6-.5.6-1,0-1.6-.3-1.5-1.4,0-.6-.2-.9-.8-.8-.2,0-.5,0-.7,0-1-.3-1.7,0-1.8,1.2-.2,1.4-1.2.4-1.9.6Z"/>
      <path class="cls-16" d="M191,354.3c-1.3-.1-1.3,0-1.4,1.2-.2,2.1-.4,4.1-.6,6.2,0,.5-.2.8-.7.6-.4-.1-1.2.2-1.1-.8.2-2.3.4-4.6.7-6.9,0-.6,0-.8-.6-.8-.3,0-.6,0-.9,0-.6,0-.8-.2-.8-.9,0-.7.4-.7.9-.6,1.7.2,3.3.4,5,.5.7,0,.8.4.8,1,0,.8-.5.5-1,.5-.1,0-.2,0-.3,0Z"/>
      <path class="cls-16" d="M255.9,343.5c0,.3-.5.3-.7.4-1.4.6-1.4.6-.9,2.1.7,1.8,1.3,3.7,2.1,5.5.4,1-.4.9-.8,1.2-.6.4-.7-.1-.9-.5-.8-2.1-1.6-4.2-2.4-6.3-.2-.6-.4-.6-.9-.4-.2.1-.5.2-.7.3-.5.2-.8.5-1.1-.3-.3-.7,0-.9.6-1.1,1.5-.6,3-1.3,4.5-1.9.7-.3,1.3.1,1.3,1Z"/>
      <path class="cls-174" d="M181.1,351.5c1.1,0,1.3.2,1.1,1.3-.3,2-.6,4-.9,6-.1.7-.1,1.2.8,1.2.5,0,1,.2,1.5.3.8.1,1.1.8.7,1.4-.1.2-.3.2-.5.1-1.3-.2-2.6-.5-4-.7-.4,0-.6-.2-.5-.6.4-2.8.9-5.7,1.3-8.5,0-.4.1-.7.6-.5Z"/>
      <path class="cls-16" d="M246,345.9c.4,0,.4.4.4.6.7,2.1,1.4,4.2,2,6.3.2.7.4.9,1.1.5.4-.2,1-.3,1.4-.5.8-.5,1.1,0,1.3.7,0,.4,0,.5-.4.7-1.3.4-2.6.9-3.9,1.4-.4.2-.5,0-.6-.3-.9-2.7-1.8-5.4-2.7-8.2-.2-.5.5-1.1,1.2-1.1Z"/>
      <path class="cls-64" d="M265.9,340.5c-.3-.3-.5-.6-.7-1.1.5.3.7.5.9.9,0,0-.2.2-.2.3Z"/>
      <path class="cls-26" d="M140.4,345.4c0,.2,0,.4-.4.7,0-.5,0-.9.2-1.3,0,.2,0,.5.2.6Z"/>
      <path class="cls-149" d="M138.8,339.8c0-.3.1-.6.3-.8.2.3,0,.6,0,.8,0,0-.2,0-.2,0Z"/>
      <path class="cls-179" d="M212.5,307.4c0,1-1,1.8-2,1.8-.8,0-1.4-.6-1.4-1.3,0-1,1-1.8,2-1.8.9,0,1.4.5,1.4,1.3Z"/>
      <path class="cls-179" d="M179.2,293.3c0,1.1-1,2.1-2.1,2.1-.9,0-1.7-.8-1.6-1.7,0-1,1-2.1,2.1-2.1.9,0,1.7.7,1.7,1.6Z"/>
      <path class="cls-133" d="M142.1,280.2c-.1.3,0,.4.2.5,1,.6.9,1.5.7,2.4-.3.9-.7,1.8-1.8,1.9-.6,0-.9.2-1,.8,0,.5-.4.6-.8.4-.5-.2-.5-.4-.4-.8.6-1.9,1.3-3.7,1.9-5.6.1-.3.2-.6.7-.5.4.1.9.2.5.8Z"/>
      <path class="cls-7" d="M212.3,280.8c.2,0,.5,0,.6-.2,0-.1.1-.1.2-.1,0,0,0,0-.1,0-.5,0-1,0-1.5,0,.8-.5,1.7-.1,2.6-.2,0,.1,0,.3,0,.4,0,.2-.3.3-.4.6-.2.3-.5.5-.6.8-.4.7-1,.8-1.6.2.1,0,.3-.2,0-.3,0-.2.1-.2.2-.3.3,0,.6,0,.9,0-.2,0-.4,0-.6-.1,0-.3.2-.4.4-.4,0-.2-.3-.2-.2-.4Z"/>
      <path class="cls-76" d="M212.8,281.3c-.2,0-.5,0-.7.2,0,.2-.3,0-.3.2,0,0-.2.1-.3.2-.1.2-.3.2-.4.4-.4,0-.8,0-.8.5,0,.3-.2.5-.6.5,0,0-.2-.1-.2-.2-.1,0-.3-.2-.2-.4,0,0,.1,0,.2-.1.3-.3-.3-.6,0-.9.3-.2.7-.2.9-.4,0,0,.2-.2.3-.2.1,0,.3,0,.4,0,0,.2-.4.4-.2.6.3.2.5-.4.8-.5.4-.3.8-.3,1.1.1Z"/>
      <path class="cls-44" d="M211.1,282.3c0-.3.2-.4.4-.4.2,0,.4,0,.7.1-.3.3-.6,0-.8.1,0,0-.2.2-.3.1Z"/>
      <path class="cls-103" d="M213.7,281.2c-.3-.5.2-.4.4-.6.1.3,0,.5-.4.6Z"/>
      <path class="cls-114" d="M198.2,275.8c-.1,0-.3.1-.4.2-.6-.1-1.2-.3-1.8-.4-.3-.1-.9.1-.8-.6,1,.3,2,.5,3,.8Z"/>
      <path class="cls-162" d="M195.3,275c.1.4.6.3.8.6,0,0-.1.1-.2.2-.6.1-1.1,0-1-.7,0,0,0,0,0,0,.1,0,.3,0,.4,0Z"/>
      <path class="cls-16" d="M198.2,284.5c.1.1.3.3.4.4-.4.2-.6,0-.8-.4,0,0,0-.1.1-.2.2,0,.2,0,.2.2Z"/>
      <path class="cls-79" d="M214.7,277.1c0,.2.3.6-.3.6-.7,0-1.3.1-2,.2-.2,0-.4,0-.4-.3,0-.3.2-.3.3-.3.8,0,1.6-.3,2.4-.2h0Z"/>
      <path class="cls-41" d="M209.1,278v-.2c.8-.4,1.5-.1,2.2-.3.2,0,.3,0,.4.2,0,.2,0,.4-.2.4-.8,0-1.6.4-2.4-.1Z"/>
      <path class="cls-101" d="M214.7,274.1c.4.4.2.5-.2.7-.5.2-1,.4-1.5.5-.4,0-.9.2-1.3.2,0,0,0,0,0-.1,0,0,0,0,0,0,.8-.3,1.7-.6,2.4-1,.2-.1.3-.3.6-.2Z"/>
      <path class="cls-22" d="M208.5,280.1c.9-.4,1.9-.2,3-.3-.6,1.1-1.5.4-2.1.6-.3-.2-.6.1-.8-.2Z"/>
      <path class="cls-42" d="M210.5,281.4c0,.8-.6.3-1,.4-.1.1-.2.3-.4.2,0-.6-.6-.2-.7-.7.2-.3.8,0,1-.5.1,0,.2,0,.3.1.2.2.6.2.8.5Z"/>
      <path class="cls-119" d="M214.3,279.2c-.6.3-1.3.2-2,.3-.2,0-.3,0-.4-.2,0-.2.1-.2.3-.2.7,0,1.4-.2,2.1.2Z"/>
      <path class="cls-132" d="M214.4,278.3c-.7.5-1.6.5-2.4.3.7-.5,1.6-.4,2.4-.3Z"/>
      <path class="cls-10" d="M211.7,276.9c-.8.3-1.6.5-2.5.2.8-.2,1.6-.5,2.5-.2Z"/>
      <path class="cls-176" d="M209.2,279.4c.7-.4,1.5-.3,2.2-.1-.7.3-1.5.2-2.2.1Z"/>
      <path class="cls-67" d="M209.1,276.4c.7-.1,1.3-.1,2-.4.2,0,.5-.1.6.2,0,.3-.3.2-.4.3-.4,0-.9,0-1.3.1-.3,0-.6.3-.8-.2Z"/>
      <path class="cls-80" d="M208.7,277.4h-1.3c.5-.9.7-1,1.3-.4,0,.1.2.3,0,.4Z"/>
      <path class="cls-62" d="M209.3,278.6c.8,0,1.5-.1,2.3-.2-.7.5-1.5.3-2.3.2Z"/>
      <path class="cls-62" d="M208.9,278.1c-.6.2-1.2.1-1.7,0,.6-.3,1.2-.5,1.8,0,0,0,0,0,0,.1Z"/>
      <path class="cls-176" d="M207.1,278.5c.1,0,.3,0,.4,0,.4.2,1.1-.3,1.4.4-.5.2-1.1.3-1.6,0-.2,0-.3-.2-.2-.4Z"/>
      <path class="cls-68" d="M212.8,281.3c-.3-.2-.7-.2-1.1-.1-.1,0-.3,0-.3-.3,0-.2.2-.1.3-.1.2,0,.4,0,.6,0,.2,0,.4,0,.6.1.1,0,.4,0,.4.2,0,.2-.3.2-.5.3Z"/>
      <path class="cls-125" d="M207.5,279.9c.3.1.8,0,.8.5,0,.2-.2.2-.4.1-.3-.2-.9,0-.9-.5,0-.3.3-.1.5-.1Z"/>
      <path class="cls-31" d="M209.1,281.9c.1,0,.3-.1.4-.2,0,.2.1.3.3.4.3,0,.2.2.1.4-.1.3-.3,0-.5,0-.3-.2-.5-.3-.8-.5,0-.2,0-.3.2-.2,0,0,0,0,.1,0Z"/>
      <path class="cls-38" d="M207.5,282.6c.5.2,1,.3,1.1.8,0,0-.1.2-.2.2-.5-.1-.7-.7-1-1Z"/>
      <path class="cls-41" d="M209.3,282.8c0,.1.1.2.2.4-.7.1-1.1-.5-1.5-1,.4.2.9.4,1.3.6Z"/>
      <path class="cls-71" d="M209.5,281c0,0-.2-.2-.2-.2h0c.4-.1.8-.1,1.3,0,.3,0,.6,0,.5.4-.1,0-.3,0-.4,0-.4.2-.8,0-1.2-.2Z"/>
      <path class="cls-156" d="M206.3,284.6c0-.4-.4-.7-.3-1.2.5.3.5.7.6,1.1,0,.3-.2.1-.3.1h0Z"/>
      <path class="cls-41" d="M206.5,283.2c.5.4,1,.6.5,1.3-.3-.4-.4-.7-.5-1.3Z"/>
      <path class="cls-68" d="M207.9,279.3c.2,0,.4,0,.8.1-.6.5-1.1,0-1.6,0,0,0,0,0,0,0,0,0,0,0,0,0,.3-.1.6-.2.8,0Z"/>
      <path class="cls-130" d="M207.9,279.3c-.3,0-.6,0-.8,0,0-.1.1-.2.2-.3.5,0,1.1,0,1.6,0-.2.5-.7,0-1,.4Z"/>
      <path class="cls-62" d="M211.5,280.4c.7,0,1.4-.2,2.1,0-.2.4-.5.1-.7.2-.5,0-.9-.1-1.4-.2Z"/>
      <path class="cls-57" d="M207,282.9c.5.2.8.5,1.1,1.1-.7-.2-.9-.7-1.1-1.1Z"/>
      <path class="cls-49" d="M206.1,281.5c.7.2.9.5,1.2.8-.7.2-.8-.3-1.2-.8Z"/>
      <path class="cls-110" d="M213.8,279.9h-1.7s0,0,0-.1h1.7s0,0,0,.1Z"/>
      <path class="cls-157" d="M208.1,281.1c-.6.3-.8,0-1.3-.2.5-.2.9-.2,1.3.2Z"/>
      <path class="cls-152" d="M206.1,282.6c0,.2,0,.3,0,.6-.4-.1-.6-.3-.5-.7.1,0,.3,0,.4.1h0Z"/>
      <path class="cls-21" d="M207.5,281.9c-.4-.2-.6-.4-.8-.8.4.1.9.1.8.8Z"/>
      <path class="cls-23" d="M204.5,283.5s0,0,0-.1c.3-.1,0-.4.5-.7-.2.5.5,1-.5.9Z"/>
      <path class="cls-159" d="M208.5,280.1c.3,0,.6.1.8.2-.2-.3-.9,1-.8-.2Z"/>
      <path class="cls-2" d="M209.1,276.4c.2.3.5.1.8.2-.3.2-.7.2-1.1.2,0-.2,0-.4.3-.4Z"/>
      <path class="cls-87" d="M210.5,280.7c-.4,0-.8,0-1.3,0,.4-.4.8-.2,1.3,0Z"/>
      <path class="cls-108" d="M211.7,275.4c0,0,0,.1,0,.2-.1.2-.4.2-.6.2,0-.4.4-.2.6-.4Z"/>
      <path class="cls-4" d="M206.1,282.6c.1-.2.3-.3.5,0,0,0,0,.2,0,.2-.3.2-.3-.2-.5-.2,0,0,0,0,0,0Z"/>
      <path class="cls-42" d="M208.9,281.9c0,0-.1.1-.2.2-.2,0-.3-.2-.5-.3.3-.2.6,0,.8,0Z"/>
      <path class="cls-103" d="M194.8,275c.1.5.6.6,1,.7.8.4,1.8.5,2.3,1.5-.2.2-.4.4-.6.6-.4.5-1,0-1.4.4h0c0,.1-.2.1-.3,0-.3-.3-.7-.3-1.1-.3-.4,0-.8,0-1.1-.3,0,0,.1-.2.2-.3.3-.5.7-.1,1,0-.5-.4-1.1,0-1.7-.4-.2-.1,0-.3,0-.4.6-.2,1.2,0,1.8.1,0,0,.2,0,.3,0,0,0,.1,0,0,0-.5-.3-1.2.2-1.5-.5l.2-.2c0-.2-.5,0-.4-.4,0,0,0-.2,0-.2.4.3.7,0,1-.2Z"/>
      <path class="cls-66" d="M194.6,281.6c-.5-.3-.6,0-.6.4-.3.1-.4-.3-.7-.2,0-.1-.3,0-.4-.2-.1,0-.3-.1-.4-.2.2-.7.9-.1,1.2-.6.1,0,.3,0,.4,0,.7.4,1.4-.2,2.2,0,.2,0,.5.1.5.4h0c-.7.4-1.5.5-2.2.4Z"/>
      <path class="cls-100" d="M193.8,277.5c.5,0,1,0,1.5,0,.4,0,.7,0,.7.6-.2.1-.4.2-.6,0-.5,0-1,0-1.5,0-.7,0-.5-.3,0-.6Z"/>
      <path class="cls-146" d="M196.6,280c0,.4-.5.2-.7.4-.7-.2-1.5.5-2.2-.5,1.1,0,2,0,2.9.1Z"/>
      <path class="cls-25" d="M190.8,279.2c0,0,.1-.1.2-.2.6,0,1.3,0,1.9,0,.2,0,.5,0,.5.2,0,.2-.2.3-.4.3-.7-.1-1.5.1-2.1-.4Z"/>
      <path class="cls-119" d="M190.8,278.5c-.2-.3,0-.4.2-.3.7,0,1.4.2,2.1.2,0,.4-.2.4-.4.4-.7,0-1.3,0-2-.3Z"/>
      <path class="cls-3" d="M193.4,276.7c.9,0,1.7.1,2.8.3-.9.5-1.6,0-2.2.1-.3,0-.6,0-.6-.5Z"/>
      <path class="cls-166" d="M196,279.3c-.7.4-1.5.1-2.2.1-.1,0,0-.2,0-.3.6-.3,1.2-.3,1.9-.2.2,0,.3.2.4.4Z"/>
      <path class="cls-1" d="M196.5,280.8c-.6.1-1.1.2-1.7.3-.3,0-.6.2-.6-.4l2-.2c.1,0,.3,0,.4,0,0,.2,0,.2-.2.2Z"/>
      <path class="cls-41" d="M195.4,276.6c-.7,0-1.3,0-2-.3,0-.3.3-.4.6-.4.6.3,1.3.3,2,.4,0,.5-.4.2-.6.2Z"/>
      <path class="cls-6" d="M193.8,280.8c-.1.8-.9.2-1.2.6-.2,0-.5,0-.7-.3.6-.2,1.3-.2,1.9-.2Z"/>
      <path class="cls-46" d="M196.3,278.1c.3-.8.9-.2,1.4-.4.2,0,.5,0,.5.3,0,.3-.3.2-.5.2-.5,0-.9,0-1.4,0Z"/>
      <path class="cls-62" d="M196.2,278.8c.8-.4,1.4-.3,2.2-.1-.8.3-1.4.3-2.2.1Z"/>
      <path class="cls-122" d="M198.2,279.8c.2.8-.6.7-.9.7-.5,0-.2-.3-.2-.5.4,0,.7-.1,1.1-.2Z"/>
      <path class="cls-173" d="M194,278.8c-.1,0-.4,0-.3-.3.1-.3.5,0,.7-.1.5.2,1-.1,1.5.1,0,0,.1.1.2.2-.7.3-1.3.3-2,0Z"/>
      <path class="cls-70" d="M192.6,275.7c-.6-.1-1.2-.2-1.7-.5,0,0,.2-.1.3-.2.6-.2,1,.2,1.6.3,0,0,.1.1.1.2,0,0-.1.1-.2.2Z"/>
      <path class="cls-97" d="M194,278.8h2c0,.2,0,.4,0,.6l-.2-.2c-.6-.3-1.2,0-1.8-.2,0,0,0-.1,0-.2Z"/>
      <path class="cls-178" d="M195.8,278.5c-.5,0-1,0-1.5-.1.3-.1.7,0,1-.2.2,0,.4,0,.6,0,0,0,.1,0,.2,0-.1.1-.3.2-.4.4Z"/>
      <path class="cls-166" d="M191.5,280.6c.6-.4,1.2-.3,1.9,0-.6,0-1.3,0-1.9,0Z"/>
      <path class="cls-5" d="M194,278.9c.6.1,1.3-.2,1.8.2-.7,0-1.3,0-2,0,0,0,.1-.1.2-.2Z"/>
      <path class="cls-136" d="M196.6,279.4c.6-.1,1.1-.1,1.5,0-.4,0-.8.4-1.5,0Z"/>
      <path class="cls-112" d="M193.1,279.8c-.6.2-1.1.1-1.7,0,.6-.2,1.2,0,1.7,0Z"/>
      <path class="cls-102" d="M193,281.5c.1,0,.2.1.4.2-.3,0-.6,0-.9,0,.1-.3.4-.1.5-.2Z"/>
      <path class="cls-83" d="M192.9,275.5c0,0,0-.1,0-.2,0,0,0-.1.2-.1.2,0,.4.1.6.2,0,.2,0,.3-.2.2-.2,0-.4,0-.5,0Z"/>
      <path class="cls-58" d="M193.4,275.6c0,0,.1-.1.2-.2,0,0,.1,0,.2,0,.1.2.4,0,.4.4-.3,0-.6,0-.8-.2Z"/>
      <path class="cls-31" d="M194.6,281.6c.7-.3,1.5-.4,2.2-.4-.4.6-1.5.8-2.2.4Z"/>
      <path class="cls-36" d="M196.5,282c-.1.3-.4.3-.6.5-.2.1-.4.3-.6.2,0,0,0-.2,0-.3,0-.4.4-.3.6-.4.2,0,.5-.2.7,0Z"/>
      <path class="cls-21" d="M197.3,282.3c-.4.4-.8.9-1.5.8.4-.4.9-.7,1.5-.8Z"/>
      <path class="cls-142" d="M197.9,282.5c-.4.4-.6.7-.9,1-.1.1-.2.3-.4,0-.1-.2,0-.3,0-.4.3-.2.6-.5,1.2-.7Z"/>
      <path class="cls-141" d="M198.4,280.7c-.3.3-.6.7-1.2.4.4-.4.8-.4,1.2-.4Z"/>
      <path class="cls-181" d="M198.2,284.5c0,0-.1-.1-.2-.2-.2-.6.2-.7.6-1.1,0,.6-.2.9-.4,1.3Z"/>
      <path class="cls-145" d="M198.3,282.7c-.2.7-.5,1-1.1,1.4.3-.6.6-.9,1.1-1.4Z"/>
      <path class="cls-181" d="M199.2,284.4s0,0,0,.1c-1.5-.2,0-.7-.4-1.3.7.4,0,.9.4,1.1Z"/>
      <path class="cls-89" d="M198.5,281.8c.2,0,.4-.4.4,0,0,.1-.2.9-.8.4,0-.2.2-.3.4-.4Z"/>
      <path class="cls-155" d="M197.8,282c-.3-.8.4-.5.7-.7-.1.1-.2.2-.3.3,0,.2-.2.3-.4.4Z"/>
      <path class="cls-39" d="M198.7,282.8c0-.5.3-.6.5-.8,0,.4-.2.6-.5.8Z"/>
      <path class="cls-28" d="M200,282.6c.2.4,0,.6-.2.8-.2-.4,0-.6.2-.8Z"/>
      <path class="cls-163" d="M196.5,280.8c0,0,.1-.2.2-.2.3,0,.5.2.3.5-.1-.1-.3-.2-.4-.3Z"/>
      <path class="cls-5" d="M197.8,282c.1-.1.3-.2.4-.4,0,0,.1.1.2.2-.1.1-.3.3-.4.4,0,0-.1-.1-.2-.2Z"/>
      <path class="cls-88" d="M208.7,275.7c.4-.2.8-.4,1.2-.4-.2.4-.7.4-1,.6,0,0-.1-.1-.2-.2Z"/>
      <path class="cls-16" d="M214.7,274.1c-.2,0-.4.2-.6.2,0,0-.1-.1-.2-.2.3-.1.5-.2.8-.3,0,0,0,.2,0,.2Z"/>
      <path class="cls-100" d="M193,275.2c0,0-.1,0-.2.1-.5-.1-1.1-.2-1.6-.4-.4-.2-.9-.2-1-.9,1,.4,1.9.8,2.8,1.1Z"/>
      <path class="cls-35" d="M76.7,61.4c0,1.5,0,3.1,0,4.6-1.3,0-2.6,0-3.9,0-.5,0-.7,0-.7-.7,0-1.1,0-2.3,0-3.4,0-.5.1-.7.6-.6,1.3,0,2.7,0,4,0Z"/>
      <path class="cls-16" d="M306.3,44.6c0-1.3,0-2.5,0-3.8,0-.5.1-.7.7-.7,2.1,0,4.3,0,6.4,0,.9,0,1.5.4,1.8,1.2.8,2.6.5,5.1-.8,7.4-.2.4-.5.4-.8.4-2.2,0-4.3,0-6.5,0-.6,0-.7-.2-.7-.8,0-1.3,0-2.5,0-3.8Z"/>
      <path class="cls-16" d="M265.4,49.8c0-2.5,0-5,0-7.5,0-.7.1-.9.9-.9,2.8,0,5.7,0,8.5,0,.6,0,.9.1.9.8,0,5,0,10,0,15.1,0,.7-.3.8-.9.8-2.8,0-5.7,0-8.5.1-.7,0-.8-.2-.8-.8,0-2.5,0-5,0-7.5Z"/>
      <path class="cls-16" d="M181.2,45c0-1.5,0-2.9,0-4.4,0-.5.2-.7.7-.7,2,0,4,0,6,0,1.7,0,2.6.7,2.9,2.4.3,1.9.3,3.9,0,5.9-.3,1.5-.9,1.9-2.4,1.9-2.1,0-4.2,0-6.3,0-.6,0-.8-.1-.8-.8,0-1.5,0-2.9,0-4.4Z"/>
      <path class="cls-184" d="M222.1,357.5c0,1.8-.9,2.9-2.3,3-.4,0-.6,0-.6-.5-.2-1.9-.5-3.7-.8-5.5,0-.6.1-.7.6-.7,1.3-.1,2.2.4,2.7,1.6.3.7.3,1.5.4,2.1Z"/>
      <path class="cls-184" d="M149,345c-.2,1.4-.7,2.8-1.6,3.9-.5.6-1.1.9-1.9.6-.8-.3-1-.9-1-1.7,0-1.6.6-2.9,1.6-4.1.5-.6,1.1-1,1.9-.7.9.4,1,1.1,1,2Z"/>
      <path class="cls-149" d="M195.8,354.3c.3,1.8.5,3.5.8,5.3,0,0,0,0-.1,0q-2.3,0-1.7-2.1c.3-1.1.6-2.2.9-3.3,0,0,0,0,.1,0Z"/>
      <path class="cls-92" d="M211.6,307.4c0,.5-.5.8-1,.9-.3,0-.6,0-.6-.4,0-.6.5-.8.9-.9.3,0,.5,0,.6.4Z"/>
      <path class="cls-19" d="M177.4,292.6c.6,0,.8.2.8.7,0,.6-.4,1-1.1,1.1-.5,0-.8-.3-.7-.7,0-.6.4-1,1-1.1Z"/>
      <path class="cls-127" d="M211.8,281.7c0-.2.2-.2.3-.2.2,0,.4,0,.7.1-.4.3-.7,0-1.1.1Z"/>
      <path class="cls-103" d="M209.5,281c.4,0,.8.1,1.2.2,0,0-.1.1-.2.2-.3,0-.8.1-1-.4Z"/>
      <path class="cls-125" d="M196.4,277.4c.5-1,.6-1,1.4,0-.5.2-.9,0-1.4,0Z"/>
      <path class="cls-144" d="M195.4,276.6c.2,0,.5,0,.6-.2.1,0,.3,0,.3.1,0,.1,0,.2-.2.2-.3,0-.5,0-.8-.2Z"/>
      <path class="cls-117" d="M75.2,65c-.5-.4-1-.6-1.5,0,.2-.9,0-1.3-.8-1.8.9.1,1.3-.1,1.6-1,0,1,.6,1.1,1.4,1.1-.7.5-.9.9-.7,1.7Z"/>
      <path class="cls-69" d="M73.9,61.8c0,.8-.3,1-.9,1-.5,0-.5-.4-.4-.6.3-.8.9-.2,1.3-.4Z"/>
      <path class="cls-160" d="M74.8,61.8c.4.2,1.1-.4,1.3.4,0,.2,0,.5-.3.6-.7,0-.9-.3-1-1Z"/>
      <path class="cls-154" d="M72.6,63.9c.7.5.8.6,0,1.6-.1-.6,0-1.1,0-1.6Z"/>
      <path class="cls-165" d="M76.1,63.9c0,.5,0,1,0,1.5-.6-.7-.6-1,0-1.5Z"/>
      <path class="cls-17" d="M73.9,65.5c.4-.5.6-.5.9,0-.3.2-.5,0-.9,0Z"/>
      <path class="cls-96" d="M313.9,47.2c-1.8,0-3.4,0-5,0-.5,0-.7-.2-.6-.6,0-1.3,0-2.5,0-3.8,0-.5.2-.6.7-.6,1.3,0,2.5,0,3.8,0,.5,0,.7.2.8.7,0,.5,0,1,0,1.5,0,1-.2,1.9.4,2.9Z"/>
      <path class="cls-96" d="M267.4,49.6c0-1.8,0-3.7,0-5.5,0-.6,0-.9.8-.8,1.6,0,3.3,0,4.9,0,.5,0,.7.2.7.7,0,3.8,0,7.5,0,11.3,0,.5-.2.7-.7.7-1.6,0-3.2,0-4.8.1-.7,0-.9-.2-.8-.9,0-1.9,0-3.7,0-5.6Z"/>
      <path class="cls-96" d="M183.2,45c0-.5,0-1,0-1.5,0-1.7,0-1.7,1.7-1.7,1,0,2,0,3,0,.5,0,.8.3.9.7.3,1.7.2,3.4,0,5.1,0,.3-.2.4-.5.4-1.5,0-3,0-4.5,0-.5,0-.6-.2-.6-.6,0-.8,0-1.7,0-2.5Z"/>
    </g>
  </g>
</svg>